<svg width="163" height="45" fill="none" xmlns="http://www.w3.org/2000/svg"><path d="M58.403 28.737c-1.185 0-2.202-.174-3.05-.524-.85-.35-1.492-.805-1.929-1.366a3.298 3.298 0 01-.673-1.872c0-.1.037-.187.112-.262a.412.412 0 01.3-.13h2.358c.15 0 .268.03.355.093.1.05.2.13.3.243.162.325.424.593.786.805.362.212.842.318 1.441.318.711 0 1.254-.112 1.629-.337.374-.224.561-.53.561-.917 0-.274-.1-.5-.3-.674-.187-.175-.486-.33-.898-.468-.412-.137-1.023-.293-1.834-.468-1.498-.312-2.62-.767-3.37-1.366-.735-.611-1.104-1.479-1.104-2.602 0-.76.213-1.44.637-2.04.424-.599 1.03-1.067 1.815-1.404.786-.336 1.704-.505 2.752-.505 1.085 0 2.027.187 2.826.562.799.374 1.404.848 1.816 1.422.424.562.648 1.117.673 1.666a.381.381 0 01-.393.393h-2.47a.832.832 0 01-.375-.075.751.751 0 01-.243-.243c-.075-.287-.28-.53-.618-.73-.324-.2-.73-.3-1.216-.3-.562 0-.992.1-1.292.3-.3.2-.449.493-.449.88 0 .262.081.48.243.655.175.174.45.337.824.486.387.137.936.281 1.647.43 1.16.213 2.084.481 2.77.806.699.311 1.21.723 1.535 1.235.324.499.487 1.13.487 1.89 0 .836-.244 1.566-.73 2.19-.474.612-1.142 1.086-2.003 1.423-.849.324-1.822.486-2.92.486zm7.994-.187a.498.498 0 01-.337-.13.498.498 0 01-.131-.338V15.916c0-.137.043-.25.13-.337a.498.498 0 01.338-.13h2.358c.137 0 .25.043.337.13a.46.46 0 01.131.337v4.155l3.463-4.267c.15-.237.393-.356.73-.356h2.695c.112 0 .206.044.28.131a.36.36 0 01.113.262.43.43 0 01-.056.225l-4.492 5.652 4.829 6.215c.05.05.075.124.075.224s-.038.194-.113.28a.38.38 0 01-.28.113h-2.79a.922.922 0 01-.748-.374l-3.706-4.623v4.53a.455.455 0 01-.131.336.456.456 0 01-.337.131h-2.358zm12.41 0a.499.499 0 01-.336-.13.498.498 0 01-.131-.338V15.916c0-.137.043-.25.13-.337a.498.498 0 01.338-.13h2.508c.137 0 .25.043.337.13.1.088.15.2.15.337v12.166c0 .137-.05.25-.15.337a.456.456 0 01-.337.131h-2.508zm6.069 0a.498.498 0 01-.337-.13.498.498 0 01-.13-.338V15.916c0-.137.043-.25.13-.337a.498.498 0 01.337-.13h1.984c.312 0 .524.118.636.355l4.567 7.187v-7.075c0-.137.044-.25.131-.337a.498.498 0 01.337-.13h2.246c.137 0 .25.043.337.13a.46.46 0 01.131.337v12.148a.522.522 0 01-.13.355.456.456 0 01-.338.131h-2.002a.67.67 0 01-.618-.355l-4.567-6.926v6.813a.498.498 0 01-.131.337.456.456 0 01-.337.131h-2.246zm17.87.187c-1.186 0-2.202-.174-3.051-.524-.848-.35-1.491-.805-1.928-1.366a3.297 3.297 0 01-.674-1.872c0-.1.038-.187.113-.262a.412.412 0 01.3-.13h2.358c.149 0 .268.03.355.093.1.05.2.13.3.243.162.325.424.593.786.805.362.212.842.318 1.441.318.711 0 1.254-.112 1.628-.337.375-.224.562-.53.562-.917 0-.274-.1-.5-.3-.674-.187-.175-.486-.33-.898-.468-.412-.137-1.023-.293-1.834-.468-1.498-.312-2.62-.767-3.37-1.366-.736-.611-1.104-1.479-1.104-2.602 0-.76.212-1.44.637-2.04.424-.599 1.03-1.067 1.815-1.404.786-.336 1.703-.505 2.752-.505 1.085 0 2.027.187 2.826.562.798.374 1.404.848 1.815 1.422.425.562.649 1.117.674 1.666a.382.382 0 01-.393.393h-2.471a.833.833 0 01-.374-.075.755.755 0 01-.243-.243c-.075-.287-.281-.53-.618-.73-.324-.2-.73-.3-1.216-.3-.562 0-.992.1-1.292.3-.299.2-.449.493-.449.88 0 .262.081.48.243.655.175.174.449.337.824.486.387.137.936.281 1.647.43 1.16.213 2.084.481 2.77.806.699.311 1.21.723 1.535 1.235.324.499.486 1.13.486 1.89 0 .836-.243 1.566-.73 2.19-.474.612-1.141 1.086-2.002 1.423-.849.324-1.822.486-2.92.486zm7.9-.187a.47.47 0 01-.318-.112.472.472 0 01-.113-.318v-1.348c0-.125.038-.225.113-.3a.432.432 0 01.318-.13h1.348c.124 0 .23.043.318.13a.375.375 0 01.131.3v1.348c0 .124-.044.23-.131.318a.474.474 0 01-.318.112h-1.348zm4.962 0a.47.47 0 01-.318-.112.471.471 0 01-.112-.318V15.879c0-.125.037-.225.112-.3a.432.432 0 01.318-.13h.992c.125 0 .225.043.3.13a.376.376 0 01.131.3v11.043h6.214c.137 0 .243.043.318.13a.401.401 0 01.131.319v.749c0 .124-.044.23-.131.318a.474.474 0 01-.318.112h-7.637zm9.236 0a.36.36 0 01-.262-.112.362.362 0 01-.112-.262c0-.1.006-.169.019-.206l4.642-12.11c.099-.274.299-.412.599-.412h1.272c.3 0 .499.138.599.412l4.623 12.11.038.206a.36.36 0 01-.113.262.357.357 0 01-.262.112h-.954a.482.482 0 01-.318-.094.588.588 0 01-.15-.224l-1.03-2.658h-6.139l-1.029 2.658a.527.527 0 01-.169.224.45.45 0 01-.299.094h-.955zm8.049-4.585l-2.527-6.645-2.527 6.645h5.054zm5.8 4.585a.474.474 0 01-.318-.112.471.471 0 01-.112-.318V15.898c0-.138.037-.244.112-.319a.435.435 0 01.318-.13h.861c.225 0 .381.087.468.261l6.214 9.546v-9.358a.43.43 0 01.113-.319.432.432 0 01.318-.13h.898c.137 0 .244.043.318.13.088.075.131.181.131.319V28.1a.43.43 0 01-.131.318.372.372 0 01-.299.131h-.899c-.187 0-.336-.087-.449-.262l-6.195-9.452v9.284c0 .124-.044.23-.131.318a.47.47 0 01-.318.112h-.899zm13.014 0a.474.474 0 01-.318-.112.471.471 0 01-.112-.318V15.898c0-.138.037-.244.112-.319a.435.435 0 01.318-.13h4.249c1.884 0 3.244.424 4.08 1.272.836.836 1.273 2.103 1.311 3.8.012.361.018.848.018 1.46 0 .61-.006 1.104-.018 1.478-.038 1.186-.237 2.153-.599 2.901-.35.736-.905 1.285-1.666 1.647-.761.362-1.772.543-3.032.543h-4.343zm4.249-1.59c.861 0 1.541-.12 2.04-.356.512-.238.88-.612 1.105-1.123.237-.525.368-1.223.393-2.097a58.66 58.66 0 00.037-1.404c0-.2-.012-.66-.037-1.384-.025-1.236-.319-2.134-.88-2.696-.562-.574-1.479-.86-2.751-.86h-2.752v9.92h2.845z" fill="#fff"/><path d="M19.329 1.726a5.978 5.978 0 015.978 0l13.35 7.707a5.978 5.978 0 012.989 5.177v15.415a5.98 5.98 0 01-2.99 5.178l-13.35 7.707a5.978 5.978 0 01-5.977 0l-13.35-7.707a5.978 5.978 0 01-2.989-5.178V14.61a5.98 5.98 0 012.989-5.177l13.35-7.707z" fill="url(#paint0_linear)"/><path fill-rule="evenodd" clip-rule="evenodd" d="M19.502 8.277a5.26 5.26 0 015.26 0l8.104 4.679a5.26 5.26 0 012.63 4.556v9.357a5.26 5.26 0 01-2.63 4.556l-8.103 4.678a5.261 5.261 0 01-5.261 0l-8.104-4.678a5.26 5.26 0 01-2.63-4.556v-9.357a5.26 5.26 0 012.63-4.556l8.104-4.68zm-8.418 13.42h2.907a8.357 8.357 0 017.649-7.648v-2.907c-5.67.334-10.222 4.887-10.556 10.556zm11.891 8.985a8.357 8.357 0 007.65-7.65h2.906c-.334 5.67-4.887 10.223-10.556 10.557v-2.907zm-8.984-7.65h-2.907c.334 5.67 4.887 10.223 10.556 10.557v-2.907a8.357 8.357 0 01-7.65-7.65zm8.984-8.983v-2.907c5.67.334 10.222 4.887 10.556 10.556h-2.907a8.357 8.357 0 00-7.649-7.65zm-3.46 7.649h2.125v-2.126a2.881 2.881 0 00-2.125 2.126zm3.46 4.821a4.218 4.218 0 003.487-3.486h2.822a7.02 7.02 0 01-6.309 6.308V26.52zm-7.644-4.821h2.822a4.217 4.217 0 013.487-3.487V15.39a7.02 7.02 0 00-6.309 6.309zm7.644 0v-2.126a2.881 2.881 0 012.125 2.126h-2.125zm-4.822 1.335h-2.822a7.02 7.02 0 006.309 6.309V26.52a4.217 4.217 0 01-3.487-3.487zm3.487 2.125a2.88 2.88 0 01-2.125-2.125h2.125v2.125zm1.335-9.77v2.823c1.786.286 3.2 1.7 3.487 3.487h2.822a7.02 7.02 0 00-6.309-6.31zm0 9.77v-2.125H25.1a2.88 2.88 0 01-2.125 2.125z" fill="#fff"/><defs><linearGradient id="paint0_linear" x1="22.318" y1="11.641" x2="22.318" y2="59.038" gradientUnits="userSpaceOnUse"><stop stop-color="#FF113C"/><stop offset="1" stop-color="#930000"/></linearGradient></defs></svg>