<svg width="64" height="64" fill="none" xmlns="http://www.w3.org/2000/svg"><g clip-path="url(#clip0)" fill="#FF2929"><path opacity=".7" d="M61.425 32.4c0-3.132-.488-6.195-1.462-9.048l1.88-3.411A31.472 31.472 0 0055.02 9.779a31.473 31.473 0 00-10.16-6.821l-3.41 1.879c-2.854-.905-5.847-1.462-9.049-1.462-3.202 0-6.195.488-9.048 1.462l-3.411-1.88A31.472 31.472 0 009.779 9.78a31.47 31.47 0 00-6.821 10.16l1.879 3.41c-.905 2.854-1.462 5.847-1.462 9.049 0 3.132.488 6.195 1.462 9.048l-1.88 3.411A31.47 31.47 0 009.78 55.021a31.47 31.47 0 0010.162 6.821l3.41-1.879c2.854.905 5.847 1.462 9.049 1.462 3.132 0 6.195-.488 9.048-1.462l3.411 1.88a31.47 31.47 0 0010.162-6.822 31.472 31.472 0 006.821-10.162l-1.88-3.41c.975-2.854 1.463-5.917 1.463-9.049zm-57.354 0C4.071 16.809 16.81 4.071 32.4 4.071c15.591 0 28.328 12.738 28.328 28.329 0 15.591-12.737 28.329-28.328 28.329-15.66 0-28.329-12.738-28.329-28.329z"/><path opacity=".5" d="M32.4 2.331c2.923 0 5.777.418 8.492 1.184l1.81-.975a31.369 31.369 0 00-20.603 0l1.81.975A31.274 31.274 0 0132.4 2.33zM2.331 32.4c0-2.923.418-5.777 1.184-8.492l-.975-1.81a31.369 31.369 0 000 20.603l.975-1.81A31.274 31.274 0 012.33 32.4zM32.4 62.469c-2.923 0-5.777-.418-8.492-1.184l-1.81.975a31.37 31.37 0 0020.603 0l-1.81-.975A31.272 31.272 0 0132.4 62.47zm29.86-40.37l-.975 1.81A30.898 30.898 0 0162.47 32.4c0 2.993-.418 5.777-1.184 8.492l.975 1.81a31.367 31.367 0 000-20.603z"/><path d="M12.215 38.386h-3.55c1.323 5.22 4.316 9.744 8.353 13.016l2.436-2.436a20.905 20.905 0 01-7.239-10.58zM11.31 32.4c0-3.62.905-7.03 2.576-10.023l-2.506-2.506A24.041 24.041 0 007.9 32.4c0 .905.07 1.74.139 2.575h3.41c-.07-.835-.139-1.67-.139-2.575zm42.11 0c0 3.62-.905 7.03-2.575 10.023l2.506 2.506A24.04 24.04 0 0056.83 32.4c0-.905-.07-1.74-.14-2.575h-3.41c.14.835.14 1.67.14 2.575zm-5.707-19.002l-2.367 2.367a20.905 20.905 0 017.239 10.58h3.55c-1.323-5.151-4.316-9.675-8.422-12.947zm1.253 31.948a20.905 20.905 0 01-10.58 7.239v3.55c5.22-1.323 9.744-4.316 13.016-8.353l-2.436-2.436zM29.825 11.519c.835-.14 1.74-.14 2.575-.14 3.62 0 7.03.906 10.023 2.576l2.506-2.506A24.04 24.04 0 0032.4 7.97c-.905 0-1.74.07-2.575.14v3.41zm5.15 41.762c-.835.14-1.74.14-2.575.14-3.62 0-7.03-.906-10.023-2.576l-2.506 2.506A24.041 24.041 0 0032.4 56.83c.905 0 1.74-.07 2.575-.14v-3.41zm-19.21-33.827a20.905 20.905 0 0110.58-7.239v-3.55c-5.22 1.323-9.745 4.316-13.016 8.353l2.436 2.436z"/><g opacity=".4"><g opacity=".4"><path opacity=".4" d="M31.843 5.115h-.487v.488h.487v-.488z"/><path opacity=".5" d="M31.773 5.742h-.278v.278h.278v-.278z"/><path opacity=".2" d="M31.704 6.23h-.209v.208h.209v-.209z"/></g><g opacity=".4"><path opacity=".4" d="M32.678 5.115h-.487v.488h.487v-.488z"/><path opacity=".5" d="M32.54 5.742h-.28v.278h.28v-.278z"/><path opacity=".2" d="M32.47 6.23h-.21v.208h.21v-.209z"/></g><g opacity=".4"><path opacity=".4" d="M33.444 5.115h-.487v.488h.487v-.488z"/><path opacity=".5" d="M33.305 5.742h-.279v.278h.279v-.278z"/><path opacity=".2" d="M33.235 6.23h-.209v.208h.21v-.209z"/></g></g><g opacity=".4"><g opacity=".4"><path opacity=".4" d="M22.56 6.927l-.458.167.167.458.458-.167-.167-.458z"/><path opacity=".5" d="M22.676 7.586l-.262.095.095.262.262-.095-.095-.262z"/><path opacity=".2" d="M22.82 8.006l-.196.072.072.196.196-.071-.071-.197z"/></g><g opacity=".4"><path opacity=".4" d="M23.318 6.635l-.458.167.167.457.457-.166-.166-.458z"/><path opacity=".5" d="M23.433 7.294l-.262.096.095.261.262-.095-.095-.262z"/><path opacity=".2" d="M23.513 7.737l-.196.072.071.196.196-.072-.071-.196z"/></g><g opacity=".4"><path opacity=".4" d="M24.012 6.367l-.458.167.167.458.457-.167-.166-.458z"/><path opacity=".5" d="M24.126 7.027l-.261.095.095.262.261-.095-.095-.262z"/><path opacity=".2" d="M24.205 7.47l-.196.071.071.196.197-.071-.072-.196z"/></g></g><g opacity=".4"><g opacity=".4"><path opacity=".4" d="M14.451 11.835l-.373.313.313.373.373-.313-.313-.373z"/><path opacity=".5" d="M14.791 12.354l-.213.179.179.213.213-.179-.179-.213z"/><path opacity=".2" d="M15.03 12.74l-.16.133.134.16.16-.134-.135-.16z"/></g><g opacity=".4"><path opacity=".4" d="M15.073 11.322l-.373.313.313.373.373-.313-.313-.373z"/><path opacity=".5" d="M15.36 11.887l-.214.178.18.214.213-.18-.18-.212z"/><path opacity=".2" d="M15.598 12.271l-.16.134.134.16.16-.134-.134-.16z"/></g><g opacity=".4"><path opacity=".4" d="M15.643 10.854l-.373.313.313.373.373-.313-.313-.373z"/><path opacity=".5" d="M15.929 11.417l-.213.18.179.213.213-.18-.179-.213z"/><path opacity=".2" d="M16.219 11.758l-.16.134.134.16.16-.134-.134-.16z"/></g></g><g opacity=".4"><g opacity=".4"><path opacity=".4" d="M8.503 19.225l-.243.422.421.244.244-.422-.422-.244z"/><path opacity=".5" d="M8.979 19.646l-.14.24.242.14.14-.241-.242-.14z"/><path opacity=".2" d="M9.333 19.875l-.104.181.18.104.105-.18-.18-.105z"/></g><g opacity=".4"><path opacity=".4" d="M8.878 18.515l-.244.422.422.244.244-.422-.422-.244z"/><path opacity=".5" d="M9.352 18.935l-.139.241.241.14.14-.242-.242-.14z"/><path opacity=".2" d="M9.769 19.202l-.105.18.181.105.105-.181-.181-.104z"/></g><g opacity=".4"><path opacity=".4" d="M9.279 17.9l-.244.422.422.244.244-.422-.422-.244z"/><path opacity=".5" d="M9.753 18.32l-.139.241.241.14.14-.242-.242-.139z"/><path opacity=".2" d="M10.109 18.552l-.104.18.18.105.105-.181-.181-.104z"/></g></g><g opacity=".4"><g opacity=".4"><path opacity=".4" d="M5.434 28.148l-.084.48.48.084.084-.48-.48-.084z"/><path opacity=".5" d="M6.064 28.382l-.049.274.274.049.049-.275-.274-.048z"/><path opacity=".2" d="M6.468 28.527l-.036.206.205.036.037-.205-.206-.037z"/></g><g opacity=".4"><path opacity=".4" d="M5.56 27.383l-.085.48.48.084.084-.48-.48-.084z"/><path opacity=".5" d="M6.191 27.618l-.048.274.274.049.049-.274-.275-.049z"/><path opacity=".2" d="M6.595 27.765l-.036.205.206.037.036-.206-.206-.036z"/></g><g opacity=".4"><path opacity=".4" d="M5.686 26.619l-.085.48.48.084.084-.48-.48-.084z"/><path opacity=".5" d="M6.317 26.854l-.049.274.274.049.049-.275-.274-.048z"/><path opacity=".2" d="M6.722 27l-.037.206.206.037.036-.206L6.722 27z"/></g></g><g opacity=".4"><g opacity=".4"><path opacity=".4" d="M6.115 37.574l-.48.085.085.48.48-.085-.085-.48z"/><path opacity=".5" d="M6.552 37.594l-.274.048.048.275.274-.049-.048-.274z"/><path opacity=".2" d="M6.9 37.539l-.205.036.036.206.206-.036-.036-.206z"/></g><g opacity=".4"><path opacity=".4" d="M5.975 36.81l-.48.084.085.48.48-.084-.085-.48z"/><path opacity=".5" d="M6.41 36.831l-.274.048.049.275.274-.049-.048-.274z"/><path opacity=".2" d="M6.76 36.774l-.205.037.036.205.206-.036-.037-.206z"/></g><g opacity=".4"><path opacity=".4" d="M5.836 36.046l-.48.084.085.48.48-.085-.085-.48z"/><path opacity=".5" d="M6.27 36.064l-.274.049.048.274.274-.049-.048-.274z"/><path opacity=".2" d="M6.62 36.008l-.205.036.036.206.206-.036-.036-.206z"/></g></g><g opacity=".4"><g opacity=".4"><path opacity=".4" d="M9.405 46.246l-.422.243.243.422.422-.243-.243-.422z"/><path opacity=".5" d="M9.837 46.152l-.24.139.138.24.241-.138-.139-.241z"/><path opacity=".2" d="M10.191 45.95l-.18.105.104.18.18-.104-.104-.18z"/></g><g opacity=".4"><path opacity=".4" d="M9.072 45.596l-.422.243.244.422.422-.244-.244-.422z"/><path opacity=".5" d="M9.468 45.438l-.24.139.138.241.241-.14-.139-.24z"/><path opacity=".2" d="M9.86 45.3l-.18.104.104.181.18-.104-.104-.181z"/></g><g opacity=".4"><path opacity=".4" d="M8.643 44.919l-.422.243.244.422.421-.244-.243-.422z"/><path opacity=".5" d="M9.079 44.824l-.241.139.139.241.24-.14-.138-.24z"/><path opacity=".2" d="M9.428 44.625l-.181.104.104.181.181-.104-.104-.181z"/></g></g><g opacity=".4"><g opacity=".4"><path opacity=".4" d="M15.546 53.258l-.313.373.373.313.313-.373-.373-.313z"/><path opacity=".5" d="M15.914 53.04l-.18.213.214.179.18-.213-.214-.18z"/><path opacity=".2" d="M16.172 52.697l-.134.16.16.134.134-.16-.16-.135z"/></g><g opacity=".4"><path opacity=".4" d="M14.978 52.744l-.313.373.373.314.313-.374-.373-.313z"/><path opacity=".5" d="M15.351 52.524l-.179.213.214.18.179-.214-.213-.179z"/><path opacity=".2" d="M15.565 52.233l-.134.16.16.134.134-.16-.16-.134z"/></g><g opacity=".4"><path opacity=".4" d="M14.373 52.281l-.313.373.373.313.313-.373-.373-.313z"/><path opacity=".5" d="M14.734 51.968l-.179.213.213.179.18-.213-.214-.18z"/><path opacity=".2" d="M15.006 51.721l-.134.16.16.135.134-.16-.16-.135z"/></g></g><g opacity=".4"><g opacity=".4"><path opacity=".4" d="M23.753 57.772l-.167.458.458.167.167-.458-.458-.167z"/><path opacity=".5" d="M23.924 57.378l-.095.262.261.095.096-.262-.262-.095z"/><path opacity=".2" d="M24.097 57.067l-.071.196.196.071.072-.196-.197-.071z"/></g><g opacity=".4"><path opacity=".4" d="M23.027 57.48l-.167.457.458.167.167-.458-.458-.167z"/><path opacity=".5" d="M23.266 57.106l-.096.262.262.095.095-.261-.261-.096z"/><path opacity=".2" d="M23.37 56.774l-.072.196.196.072.072-.197-.197-.071z"/></g><g opacity=".4"><path opacity=".4" d="M22.275 57.252l-.166.458.458.166.166-.457-.458-.167z"/><path opacity=".5" d="M22.51 56.881l-.095.262.261.095.095-.261-.261-.096z"/><path opacity=".2" d="M22.707 56.505l-.072.196.197.071.071-.196-.196-.071z"/></g></g><g opacity=".4"><g opacity=".4"><path opacity=".4" d="M33.444 59.197h-.487v.487h.487v-.487z"/><path opacity=".5" d="M33.305 58.78h-.279v.278h.279v-.278z"/><path opacity=".2" d="M33.235 58.362h-.209v.209h.21v-.209z"/></g><g opacity=".4"><path opacity=".4" d="M32.678 59.197h-.487v.487h.487v-.487z"/><path opacity=".5" d="M32.54 58.78h-.28v.278h.28v-.278z"/><path opacity=".2" d="M32.47 58.362h-.21v.209h.21v-.209z"/></g><g opacity=".4"><path opacity=".4" d="M31.843 59.197h-.487v.487h.487v-.487z"/><path opacity=".5" d="M31.773 58.78h-.278v.278h.278v-.278z"/><path opacity=".2" d="M31.704 58.362h-.209v.209h.209v-.209z"/></g></g><g opacity=".4"><g opacity=".4"><path opacity=".4" d="M42.535 57.246l-.458.167.167.458.457-.167-.166-.458z"/><path opacity=".5" d="M42.228 56.872l-.262.096.095.261.262-.095-.095-.262z"/><path opacity=".2" d="M42.108 56.518l-.196.071.071.196.196-.071-.071-.196z"/></g><g opacity=".4"><path opacity=".4" d="M41.775 57.537l-.458.167.167.457.458-.166-.167-.458z"/><path opacity=".5" d="M41.537 57.141l-.262.096.096.261.261-.095-.095-.262z"/><path opacity=".2" d="M41.328 56.746l-.196.072.071.196.197-.072-.072-.196z"/></g><g opacity=".4"><path opacity=".4" d="M41.08 57.804l-.457.167.166.458.458-.167-.166-.458z"/><path opacity=".5" d="M40.819 57.349l-.262.095.095.262.262-.096-.095-.261z"/><path opacity=".2" d="M40.634 57.013l-.196.072.071.196.196-.072-.071-.196z"/></g></g><g opacity=".4"><g opacity=".4"><path opacity=".4" d="M50.412 52.269l-.373.313.313.373.373-.313-.313-.373z"/><path opacity=".5" d="M50.003 51.992l-.214.178.18.214.212-.18-.178-.212z"/><path opacity=".2" d="M49.756 51.7l-.16.135.134.16.16-.135-.134-.16z"/></g><g opacity=".4"><path opacity=".4" d="M49.794 52.782l-.373.313.313.373.373-.313-.313-.373z"/><path opacity=".5" d="M49.479 52.513l-.214.178.18.214.213-.18-.18-.212z"/><path opacity=".2" d="M49.135 52.212l-.16.135.134.16.16-.135-.134-.16z"/></g><g opacity=".4"><path opacity=".4" d="M49.221 53.252l-.373.313.313.373.373-.313-.313-.373z"/><path opacity=".5" d="M48.86 53.024l-.213.18.18.212.212-.179-.179-.213z"/><path opacity=".2" d="M48.565 52.684l-.16.134.134.16.16-.134-.134-.16z"/></g></g><g opacity=".4"><g opacity=".4"><path opacity=".4" d="M56.123 44.89l-.244.422.422.243.244-.422-.422-.243z"/><path opacity=".5" d="M55.687 44.817l-.14.24.242.14.139-.241-.241-.14z"/><path opacity=".2" d="M55.3 44.649l-.104.18.18.105.105-.18-.18-.105z"/></g><g opacity=".4"><path opacity=".4" d="M55.749 45.606l-.244.422.422.243.244-.422-.422-.243z"/><path opacity=".5" d="M55.286 45.431l-.14.241.242.14.139-.242-.241-.139z"/><path opacity=".2" d="M54.96 45.295l-.104.18.181.105.105-.181-.181-.104z"/></g><g opacity=".4"><path opacity=".4" d="M55.345 46.214l-.243.422.422.244.243-.422-.422-.244z"/><path opacity=".5" d="M54.913 46.138l-.14.241.242.14.139-.242-.241-.14z"/><path opacity=".2" d="M54.526 45.97l-.105.18.181.105.105-.181-.181-.105z"/></g></g><g opacity=".4"><g opacity=".4"><path opacity=".4" d="M58.976 36.063l-.085.48.48.084.085-.48-.48-.084z"/><path opacity=".5" d="M58.508 36.071l-.048.274.274.049.048-.274-.274-.049z"/><path opacity=".2" d="M58.086 36.062l-.036.206.205.036.037-.206-.206-.036z"/></g><g opacity=".4"><path opacity=".4" d="M58.846 36.828l-.084.48.48.085.084-.48-.48-.085z"/><path opacity=".5" d="M58.386 36.837l-.049.274.274.049.049-.274-.274-.049z"/><path opacity=".2" d="M57.954 36.828l-.036.205.206.037.036-.206-.206-.036z"/></g><g opacity=".4"><path opacity=".4" d="M58.721 37.592l-.084.48.48.084.084-.48-.48-.084z"/><path opacity=".5" d="M58.26 37.602l-.048.274.274.049.048-.275-.274-.048z"/><path opacity=".2" d="M57.83 37.593l-.037.205.206.036.036-.205-.206-.036z"/></g></g><g opacity=".4"><g opacity=".4"><path opacity=".4" d="M59.083 26.66l-.48.084.084.48.48-.084-.084-.48z"/><path opacity=".5" d="M58.475 26.88l-.274.049.048.274.275-.049-.049-.274z"/><path opacity=".2" d="M57.989 26.959l-.206.036.037.206.205-.037-.036-.205z"/></g><g opacity=".4"><path opacity=".4" d="M59.222 27.423l-.48.084.085.48.48-.085-.085-.48z"/><path opacity=".5" d="M58.616 27.643l-.274.048.049.275.274-.049-.049-.274z"/><path opacity=".2" d="M58.128 27.724l-.205.036.036.205.206-.036-.037-.205z"/></g><g opacity=".4"><path opacity=".4" d="M59.36 28.187l-.48.084.084.48.48-.085-.084-.48z"/><path opacity=".5" d="M58.757 28.408l-.274.048.048.274.274-.048-.048-.274z"/><path opacity=".2" d="M58.272 28.493l-.205.036.036.206.206-.037-.037-.205z"/></g></g><g opacity=".4"><g opacity=".4"><path opacity=".4" d="M55.576 17.881l-.422.244.243.422.422-.244-.243-.422z"/><path opacity=".5" d="M55.008 18.294l-.24.139.139.241.24-.14-.139-.24z"/><path opacity=".2" d="M54.594 18.532l-.18.104.104.18.18-.104-.104-.18z"/></g><g opacity=".4"><path opacity=".4" d="M55.909 18.53l-.422.244.243.422.422-.243-.243-.422z"/><path opacity=".5" d="M55.403 18.915l-.24.14.138.24.241-.139-.139-.241z"/><path opacity=".2" d="M55.025 19.206l-.181.104.104.181.18-.104-.103-.181z"/></g><g opacity=".4"><path opacity=".4" d="M56.338 19.21l-.422.244.244.422.422-.244-.244-.422z"/><path opacity=".5" d="M55.77 19.624l-.24.14.139.24.241-.139-.14-.241z"/><path opacity=".2" d="M55.356 19.858l-.181.104.105.18.18-.104-.104-.18z"/></g></g><g opacity=".4"><g opacity=".4"><path opacity=".4" d="M49.2 10.84l-.314.373.373.313.313-.373-.373-.313z"/><path opacity=".5" d="M48.816 11.407l-.18.213.214.179.179-.213-.213-.18z"/><path opacity=".2" d="M48.55 11.751l-.133.16.16.134.134-.16-.16-.134z"/></g><g opacity=".4"><path opacity=".4" d="M49.763 11.356l-.313.374.373.313.313-.373-.373-.314z"/><path opacity=".5" d="M49.424 11.868l-.18.213.214.18.179-.214-.213-.179z"/><path opacity=".2" d="M49.115 12.264l-.134.16.16.135.134-.16-.16-.135z"/></g><g opacity=".4"><path opacity=".4" d="M50.371 11.818l-.313.373.373.313.313-.373-.373-.313z"/><path opacity=".5" d="M49.987 12.382l-.179.213.214.18.178-.214-.213-.179z"/><path opacity=".2" d="M49.723 12.728l-.135.16.16.134.135-.16-.16-.134z"/></g></g><g opacity=".4"><g opacity=".4"><path opacity=".4" d="M40.76 6.382l-.166.458.458.167.166-.458-.457-.167z"/><path opacity=".5" d="M40.644 7.02l-.095.263.261.095.096-.262-.262-.095z"/><path opacity=".2" d="M40.492 7.49l-.071.195.196.072.071-.197-.196-.07z"/></g><g opacity=".4"><path opacity=".4" d="M41.489 6.678l-.167.458.458.167.166-.458-.457-.167z"/><path opacity=".5" d="M41.373 7.314l-.095.262.261.095.096-.262-.262-.095z"/><path opacity=".2" d="M41.222 7.781l-.071.196.196.072.071-.196-.196-.072z"/></g><g opacity=".4"><path opacity=".4" d="M42.241 6.905l-.166.457.457.167.167-.458-.458-.166z"/><path opacity=".5" d="M42.102 7.606l-.096.262.262.095.095-.261-.261-.096z"/><path opacity=".2" d="M41.972 8.01l-.071.196.196.072.071-.197-.196-.071z"/></g></g></g><defs><clipPath id="clip0"><path fill="#fff" d="M.8.8H64V64H.8z"/></clipPath></defs></svg>