<svg width="163" height="45" viewBox="0 0 163 45" fill="none" xmlns="http://www.w3.org/2000/svg">
<path d="M58.4031 28.7373C57.2177 28.7373 56.2007 28.5626 55.3523 28.2132C54.5038 27.8638 53.8611 27.4084 53.4244 26.8469C53.0002 26.2729 52.7756 25.649 52.7506 24.9752C52.7506 24.8754 52.788 24.788 52.8629 24.7132C52.9503 24.6258 53.0501 24.5822 53.1624 24.5822H55.5207C55.6704 24.5822 55.789 24.6134 55.8763 24.6757C55.9761 24.7257 56.076 24.8068 56.1758 24.9191C56.338 25.2435 56.6 25.5118 56.9619 25.7239C57.3238 25.936 57.8042 26.0421 58.4031 26.0421C59.1143 26.0421 59.6571 25.9298 60.0315 25.7052C60.4058 25.4806 60.593 25.1749 60.593 24.788C60.593 24.5135 60.4931 24.2889 60.2935 24.1142C60.1063 23.9395 59.8069 23.7836 59.3951 23.6463C58.9833 23.5091 58.3719 23.3531 57.5608 23.1784C56.0635 22.8664 54.9405 22.411 54.1918 21.8121C53.4556 21.2007 53.0875 20.3334 53.0875 19.2104C53.0875 18.4493 53.2996 17.7692 53.7239 17.1703C54.1481 16.5714 54.7533 16.1034 55.5394 15.7665C56.3255 15.4296 57.2426 15.2612 58.2908 15.2612C59.3764 15.2612 60.3184 15.4483 61.117 15.8227C61.9156 16.197 62.5208 16.6712 62.9326 17.2452C63.3568 17.8067 63.5814 18.3619 63.6064 18.911C63.6064 19.0233 63.5689 19.1168 63.4941 19.1917C63.4192 19.2666 63.3256 19.304 63.2133 19.304H60.7427C60.593 19.304 60.4682 19.2791 60.3684 19.2291C60.281 19.1792 60.1999 19.0981 60.125 18.9858C60.0502 18.6988 59.8443 18.4555 59.5074 18.2559C59.183 18.0562 58.7774 17.9564 58.2908 17.9564C57.7293 17.9564 57.2988 18.0562 56.9993 18.2559C56.6999 18.4555 56.5501 18.7487 56.5501 19.1356C56.5501 19.3976 56.6312 19.616 56.7934 19.7907C56.9681 19.9653 57.2426 20.1276 57.617 20.2773C58.0038 20.4145 58.5528 20.558 59.2641 20.7078C60.4245 20.9199 61.3479 21.1882 62.0342 21.5126C62.7329 21.8245 63.2445 22.2363 63.5689 22.7479C63.8934 23.247 64.0556 23.8772 64.0556 24.6383C64.0556 25.4743 63.8123 26.2043 63.3256 26.8282C62.8515 27.4396 62.1839 27.9137 61.3229 28.2507C60.4744 28.5751 59.5011 28.7373 58.4031 28.7373ZM66.3968 28.5501C66.272 28.5501 66.1597 28.5064 66.0599 28.4191C65.9725 28.3193 65.9289 28.207 65.9289 28.0822V15.9163C65.9289 15.779 65.9725 15.6667 66.0599 15.5794C66.1597 15.492 66.272 15.4483 66.3968 15.4483H68.7551C68.8924 15.4483 69.0047 15.492 69.092 15.5794C69.1793 15.6667 69.223 15.779 69.223 15.9163V20.0714L72.6856 15.804C72.8354 15.5669 73.0787 15.4483 73.4156 15.4483H76.1108C76.2231 15.4483 76.3167 15.492 76.3916 15.5794C76.4664 15.6542 76.5039 15.7416 76.5039 15.8414C76.5039 15.9287 76.4851 16.0036 76.4477 16.066L71.9557 21.7185L76.7846 27.9325C76.8345 27.9824 76.8595 28.0572 76.8595 28.1571C76.8595 28.2569 76.822 28.3505 76.7472 28.4378C76.6723 28.5127 76.5787 28.5501 76.4664 28.5501H73.6776C73.3782 28.5501 73.1286 28.4253 72.929 28.1758L69.223 23.5527V28.0822C69.223 28.2195 69.1793 28.3318 69.092 28.4191C69.0047 28.5064 68.8924 28.5501 68.7551 28.5501H66.3968ZM78.8076 28.5501C78.6829 28.5501 78.5706 28.5064 78.4707 28.4191C78.3834 28.3193 78.3397 28.207 78.3397 28.0822V15.9163C78.3397 15.779 78.3834 15.6667 78.4707 15.5794C78.5706 15.492 78.6829 15.4483 78.8076 15.4483H81.3157C81.453 15.4483 81.5653 15.492 81.6526 15.5794C81.7524 15.6667 81.8023 15.779 81.8023 15.9163V28.0822C81.8023 28.2195 81.7524 28.3318 81.6526 28.4191C81.5653 28.5064 81.453 28.5501 81.3157 28.5501H78.8076ZM84.876 28.5501C84.7512 28.5501 84.6389 28.5064 84.5391 28.4191C84.4517 28.3193 84.4081 28.207 84.4081 28.0822V15.9163C84.4081 15.779 84.4517 15.6667 84.5391 15.5794C84.6389 15.492 84.7512 15.4483 84.876 15.4483H86.86C87.1719 15.4483 87.384 15.5669 87.4963 15.804L92.0632 22.9912V15.9163C92.0632 15.779 92.1069 15.6667 92.1943 15.5794C92.2941 15.492 92.4064 15.4483 92.5312 15.4483H94.7772C94.9144 15.4483 95.0267 15.492 95.1141 15.5794C95.2014 15.6667 95.2451 15.779 95.2451 15.9163V28.0635C95.2451 28.2007 95.2014 28.3193 95.1141 28.4191C95.0267 28.5064 94.9144 28.5501 94.7772 28.5501H92.7745C92.5 28.5501 92.2941 28.4316 92.1568 28.1945L87.5899 21.2693V28.0822C87.5899 28.207 87.5462 28.3193 87.4589 28.4191C87.3716 28.5064 87.2593 28.5501 87.122 28.5501H84.876ZM102.746 28.7373C101.56 28.7373 100.544 28.5626 99.695 28.2132C98.8465 27.8638 98.2039 27.4084 97.7672 26.8469C97.3429 26.2729 97.1183 25.649 97.0934 24.9752C97.0934 24.8754 97.1308 24.788 97.2057 24.7132C97.293 24.6258 97.3929 24.5822 97.5052 24.5822H99.8635C100.013 24.5822 100.132 24.6134 100.219 24.6757C100.319 24.7257 100.419 24.8068 100.519 24.9191C100.681 25.2435 100.943 25.5118 101.305 25.7239C101.667 25.936 102.147 26.0421 102.746 26.0421C103.457 26.0421 104 25.9298 104.374 25.7052C104.749 25.4806 104.936 25.1749 104.936 24.788C104.936 24.5135 104.836 24.2889 104.636 24.1142C104.449 23.9395 104.15 23.7836 103.738 23.6463C103.326 23.5091 102.715 23.3531 101.904 23.1784C100.406 22.8664 99.2833 22.411 98.5346 21.8121C97.7984 21.2007 97.4303 20.3334 97.4303 19.2104C97.4303 18.4493 97.6424 17.7692 98.0667 17.1703C98.4909 16.5714 99.0961 16.1034 99.8822 15.7665C100.668 15.4296 101.585 15.2612 102.634 15.2612C103.719 15.2612 104.661 15.4483 105.46 15.8227C106.258 16.197 106.864 16.6712 107.275 17.2452C107.7 17.8067 107.924 18.3619 107.949 18.911C107.949 19.0233 107.912 19.1168 107.837 19.1917C107.762 19.2666 107.668 19.304 107.556 19.304H105.085C104.936 19.304 104.811 19.2791 104.711 19.2291C104.624 19.1792 104.543 19.0981 104.468 18.9858C104.393 18.6988 104.187 18.4555 103.85 18.2559C103.526 18.0562 103.12 17.9564 102.634 17.9564C102.072 17.9564 101.642 18.0562 101.342 18.2559C101.043 18.4555 100.893 18.7487 100.893 19.1356C100.893 19.3976 100.974 19.616 101.136 19.7907C101.311 19.9653 101.585 20.1276 101.96 20.2773C102.347 20.4145 102.896 20.558 103.607 20.7078C104.767 20.9199 105.691 21.1882 106.377 21.5126C107.076 21.8245 107.587 22.2363 107.912 22.7479C108.236 23.247 108.398 23.8772 108.398 24.6383C108.398 25.4743 108.155 26.2043 107.668 26.8282C107.194 27.4396 106.527 27.9137 105.666 28.2507C104.817 28.5751 103.844 28.7373 102.746 28.7373ZM110.646 28.5501C110.521 28.5501 110.415 28.5127 110.328 28.4378C110.253 28.3505 110.215 28.2444 110.215 28.1196V26.772C110.215 26.6472 110.253 26.5474 110.328 26.4726C110.415 26.3852 110.521 26.3415 110.646 26.3415H111.994C112.118 26.3415 112.224 26.3852 112.312 26.4726C112.399 26.5474 112.443 26.6472 112.443 26.772V28.1196C112.443 28.2444 112.399 28.3505 112.312 28.4378C112.224 28.5127 112.118 28.5501 111.994 28.5501H110.646ZM115.608 28.5501C115.483 28.5501 115.377 28.5127 115.29 28.4378C115.215 28.3505 115.178 28.2444 115.178 28.1196V15.8788C115.178 15.7541 115.215 15.6542 115.29 15.5794C115.377 15.492 115.483 15.4483 115.608 15.4483H116.6C116.725 15.4483 116.825 15.492 116.9 15.5794C116.987 15.6542 117.031 15.7541 117.031 15.8788V26.9218H123.245C123.382 26.9218 123.488 26.9654 123.563 27.0528C123.65 27.1276 123.694 27.2337 123.694 27.371V28.1196C123.694 28.2444 123.65 28.3505 123.563 28.4378C123.475 28.5127 123.369 28.5501 123.245 28.5501H115.608ZM124.844 28.5501C124.745 28.5501 124.657 28.5127 124.582 28.4378C124.508 28.363 124.47 28.2756 124.47 28.1758C124.47 28.076 124.476 28.0073 124.489 27.9699L129.131 15.8601C129.23 15.5856 129.43 15.4483 129.73 15.4483H131.002C131.302 15.4483 131.501 15.5856 131.601 15.8601L136.224 27.9699L136.262 28.1758C136.262 28.2756 136.224 28.363 136.149 28.4378C136.075 28.5127 135.987 28.5501 135.887 28.5501H134.933C134.796 28.5501 134.689 28.5189 134.615 28.4565C134.54 28.3817 134.49 28.3068 134.465 28.2319L133.435 25.5741H127.296L126.267 28.2319C126.242 28.3068 126.186 28.3817 126.098 28.4565C126.024 28.5189 125.924 28.5501 125.799 28.5501H124.844ZM132.893 23.9645L130.366 17.32L127.839 23.9645H132.893ZM138.693 28.5501C138.569 28.5501 138.463 28.5127 138.375 28.4378C138.3 28.3505 138.263 28.2444 138.263 28.1196V15.8976C138.263 15.7603 138.3 15.6542 138.375 15.5794C138.463 15.492 138.569 15.4483 138.693 15.4483H139.554C139.779 15.4483 139.935 15.5357 140.022 15.7104L146.236 25.256V15.8976C146.236 15.7603 146.274 15.6542 146.349 15.5794C146.436 15.492 146.542 15.4483 146.667 15.4483H147.565C147.702 15.4483 147.809 15.492 147.883 15.5794C147.971 15.6542 148.014 15.7603 148.014 15.8976V28.1009C148.014 28.2257 147.971 28.3318 147.883 28.4191C147.809 28.5064 147.709 28.5501 147.584 28.5501H146.685C146.498 28.5501 146.349 28.4628 146.236 28.2881L140.041 18.8361V28.1196C140.041 28.2444 139.997 28.3505 139.91 28.4378C139.823 28.5127 139.717 28.5501 139.592 28.5501H138.693ZM151.707 28.5501C151.583 28.5501 151.477 28.5127 151.389 28.4378C151.314 28.3505 151.277 28.2444 151.277 28.1196V15.8976C151.277 15.7603 151.314 15.6542 151.389 15.5794C151.477 15.492 151.583 15.4483 151.707 15.4483H155.956C157.84 15.4483 159.2 15.8726 160.036 16.7211C160.872 17.5571 161.309 18.8236 161.347 20.5206C161.359 20.8825 161.365 21.3691 161.365 21.9805C161.365 22.5919 161.359 23.0848 161.347 23.4591C161.309 24.6445 161.11 25.6116 160.748 26.3603C160.398 27.0964 159.843 27.6455 159.082 28.0073C158.321 28.3692 157.31 28.5501 156.05 28.5501H151.707ZM155.956 26.9592C156.817 26.9592 157.497 26.8407 157.996 26.6036C158.508 26.3665 158.876 25.9922 159.101 25.4806C159.338 24.9565 159.469 24.2577 159.494 23.3843C159.519 22.6356 159.531 22.1677 159.531 21.9805C159.531 21.7809 159.519 21.3192 159.494 20.5955C159.469 19.3602 159.175 18.4618 158.614 17.9003C158.052 17.3263 157.135 17.0393 155.863 17.0393H153.111V26.9592H155.956Z" fill="white"/>
<path d="M19.3289 1.7257C21.1785 0.657831 23.4572 0.657833 25.3068 1.7257L38.6567 9.43323C40.5063 10.5011 41.6457 12.4746 41.6457 14.6103V30.0254C41.6457 32.1611 40.5063 34.1346 38.6567 35.2025L25.3068 42.91C23.4572 43.9779 21.1784 43.9779 19.3288 42.91L5.97902 35.2025C4.12942 34.1346 2.99002 32.1611 2.99002 30.0254V14.6103C2.99002 12.4746 4.12942 10.5011 5.97902 9.43323L19.3289 1.7257Z" fill="url(#paint0_linear)"/>
<path fill-rule="evenodd" clip-rule="evenodd" d="M19.5018 8.27693C21.1295 7.33717 23.1349 7.33717 24.7626 8.27693L32.8661 12.9555C34.4939 13.8953 35.4966 15.632 35.4966 17.5115V26.8687C35.4966 28.7482 34.4939 30.4849 32.8661 31.4247L24.7626 36.1033C23.1349 37.043 21.1295 37.043 19.5018 36.1033L11.3982 31.4247C9.77054 30.4849 8.76782 28.7482 8.76782 26.8687V17.5115C8.76782 15.632 9.77054 13.8953 11.3983 12.9555L19.5018 8.27693ZM11.0844 21.6977H13.9907C14.3145 17.6283 17.5705 14.3723 21.6399 14.0485V11.1422C15.9708 11.4758 11.418 16.0286 11.0844 21.6977ZM22.9752 30.6821C27.0446 30.3584 30.3006 27.1023 30.6244 23.0329H33.5307C33.197 28.702 28.6443 33.2548 22.9752 33.5885V30.6821ZM13.9907 23.0329H11.0843C11.418 28.702 15.9708 33.2548 21.6398 33.5885V30.6821C17.5705 30.3584 14.3144 27.1023 13.9907 23.0329ZM22.9752 14.0485V11.1421C28.6443 11.4758 33.197 16.0286 33.5307 21.6976H30.6244C30.3006 17.6283 27.0446 14.3722 22.9752 14.0485ZM19.5145 21.6976H21.6398V19.5723C20.5916 19.8229 19.7651 20.6493 19.5145 21.6976ZM22.9752 26.5194C24.7614 26.2334 26.1756 24.8191 26.4617 23.0328V23.0328H29.2839C28.9674 26.3653 26.3078 29.0251 22.9752 29.3415V26.5194ZM15.331 21.6976H18.1532C18.4392 19.9114 19.8534 18.4971 21.6397 18.2111V15.3889C18.3071 15.7054 15.6474 18.3651 15.331 21.6976ZM22.9752 21.6976V19.5723C24.0234 19.8229 24.8499 20.6493 25.1005 21.6976H22.9752ZM18.1533 23.0329H15.331C15.6475 26.3655 18.3072 29.0252 21.6397 29.3417V26.5195C19.8535 26.2335 18.4393 24.8192 18.1533 23.0329ZM21.6398 25.1582C20.5915 24.9076 19.7651 24.0812 19.5145 23.0329H21.6398V25.1582ZM22.9752 15.3889V18.2111C24.7614 18.4971 26.1757 19.9114 26.4617 21.6976H29.2838C28.9674 18.365 26.3077 15.7054 22.9752 15.3889ZM22.9752 25.1582V23.0329H25.1005C24.8499 24.0812 24.0235 24.9076 22.9752 25.1582Z" fill="white"/>
<defs>
<linearGradient id="paint0_linear" x1="22.3178" y1="11.6413" x2="22.3178" y2="59.0381" gradientUnits="userSpaceOnUse">
<stop stop-color="#FF113C"/>
<stop offset="1" stop-color="#930000"/>
</linearGradient>
</defs>
</svg>
