<svg width="18" height="20" fill="none" xmlns="http://www.w3.org/2000/svg"><g clip-path="url(#clip0)"><path d="M15.06 16.397l-4.433 2.57a4.174 4.174 0 01-4.129 0l-4.433-2.57A4.1 4.1 0 010 12.834V7.713A4.1 4.1 0 012.065 4.15l4.433-2.571a4.173 4.173 0 014.13 0l4.433 2.57a4.124 4.124 0 012.064 3.564v5.121a4.1 4.1 0 01-2.064 3.563z" fill="url(#paint0_linear)"/><path d="M8.563 18.725c-.324 0-.648-.081-.931-.243l-5.709-3.3a1.861 1.861 0 01-.931-1.62V6.985c0-.668.364-1.296.931-1.62l5.709-3.3a1.88 1.88 0 01.93-.242c.325 0 .649.08.932.243l5.709 3.3c.587.343.93.95.93 1.619v6.579c0 .668-.364 1.295-.93 1.62l-5.709 3.299a1.881 1.881 0 01-.931.243z" fill="url(#paint1_linear)"/><path d="M8.563 18.583c-.304 0-.607-.081-.87-.223l-5.71-3.3a1.76 1.76 0 01-.87-1.497v-6.58c0-.627.324-1.194.87-1.497l5.71-3.3a1.64 1.64 0 01.87-.222c.303 0 .607.08.87.222l5.709 3.3c.526.303.87.89.87 1.498v6.579c0 .627-.324 1.194-.87 1.498l-5.709 3.3a1.854 1.854 0 01-.87.222z" fill="url(#paint2_linear)"/><path d="M11.296 15.81c-.243 0-.486-.04-.709-.142l-1.781-.77c-.081-.04-.162-.04-.243-.04-.081 0-.162.02-.243.04l-1.782.77a1.705 1.705 0 01-.708.142v-.142.142c-.486 0-.972-.203-1.296-.587a1.735 1.735 0 01-.445-1.357l.162-1.923a.593.593 0 00-.142-.445l-1.295-1.457c-.425-.466-.547-1.114-.365-1.721a1.734 1.734 0 011.296-1.174l1.903-.425a.612.612 0 00.384-.284l.992-1.68a1.75 1.75 0 011.518-.87 1.75 1.75 0 011.519.87l.992 1.68a.612.612 0 00.384.284l1.903.425a1.767 1.767 0 011.296 1.174c.202.607.06 1.235-.365 1.72l-1.295 1.458a.592.592 0 00-.142.445l.182 1.944c.04.485-.121.992-.445 1.356-.304.364-.79.567-1.275.567z" fill="url(#paint3_linear)"/><path d="M11.296 15.688c-.223 0-.446-.04-.648-.142l-1.802-.769a.714.714 0 00-.283-.06.646.646 0 00-.284.06l-1.801.77a1.772 1.772 0 01-.648.141 1.72 1.72 0 01-1.215-.526 1.581 1.581 0 01-.404-1.255l.182-1.944a.672.672 0 00-.182-.546L2.915 9.96a1.612 1.612 0 01-.324-1.58 1.67 1.67 0 011.194-1.093l1.903-.425a.674.674 0 00.466-.344l.992-1.68c.303-.506.83-.81 1.397-.81.587 0 1.113.304 1.396.81l.992 1.68a.72.72 0 00.466.344l1.903.425a1.596 1.596 0 011.194 1.094c.182.546.06 1.153-.324 1.579l-1.296 1.457a.673.673 0 00-.182.546l.182 1.944c.041.466-.1.91-.404 1.255a1.593 1.593 0 01-1.174.526z" fill="url(#paint4_linear)"/><path d="M7.895 13.907l-1.782.77a.705.705 0 01-.971-.71l.182-1.943a1.657 1.657 0 00-.405-1.255L3.623 9.312a.695.695 0 01.365-1.134l1.903-.425a1.69 1.69 0 001.073-.79l.991-1.68a.7.7 0 011.195 0l.992 1.68a1.69 1.69 0 001.073.79l1.902.425c.506.122.709.75.365 1.134l-1.296 1.457c-.303.344-.445.81-.405 1.255l.182 1.944a.705.705 0 01-.971.708l-1.781-.77a1.652 1.652 0 00-1.316 0z" fill="url(#paint5_radial)"/><path d="M9.615 6.053l-.445-.77a.7.7 0 00-1.194 0l-.992 1.68a1.69 1.69 0 01-1.073.79l-1.903.425c-.465.101-.668.607-.465.992a.684.684 0 01.526-.85l1.903-.425a1.69 1.69 0 001.073-.79l.992-1.68a.7.7 0 011.194 0c-.02.02.364.648.384.628z" fill="url(#paint6_linear)"/><path d="M13.117 8.178l-1.902-.425a1.69 1.69 0 01-1.073-.79l-.243-.404.303.546c.243.405.628.689 1.073.79l1.903.425c.203.04.364.182.466.344a.682.682 0 00-.527-.486z" fill="#FD0"/><path d="M5.202 14.13l.183-1.944c.02-.303-.02-.587-.142-.85.08.223.101.466.08.708l-.181 1.944c-.02.142.02.283.08.385-.02-.082-.04-.162-.02-.243z" fill="#FC0"/><path d="M11.296 14.251c-.02 0-.061 0-.081-.02l-1.782-.77a2.167 2.167 0 00-1.74 0l-1.782.77c-.02.02-.06.02-.081.02a.184.184 0 01-.142-.06c-.04-.041-.06-.082-.04-.142l.182-1.944a2.203 2.203 0 00-.526-1.64L4.008 9.009c-.06-.08-.06-.142-.04-.182.02-.04.04-.101.141-.122l1.903-.425A2.166 2.166 0 007.41 7.267l.992-1.68a.186.186 0 01.162-.101c.04 0 .121.02.162.101l.992 1.68c.303.506.81.89 1.396 1.012l1.903.425c.101.02.122.081.142.122.02.04.02.121-.04.182l-1.296 1.458a2.123 2.123 0 00-.526 1.64l.182 1.943c0 .06-.02.1-.04.141a.219.219 0 01-.142.061z" fill="url(#paint7_linear)"/><path d="M11.296 12.085a2.169 2.169 0 01.364-1.417c-.02 0-.04.02-.06.02-.669.304-1.499.83-2.207 1.336-.648.466-1.417.689-2.207.891a3.435 3.435 0 01-1.437.06l-.101 1.053c0 .061.02.102.04.142.04.04.081.06.142.06.02 0 .06 0 .081-.02l1.781-.769a2.165 2.165 0 011.741 0l1.782.77c.02.02.06.02.08.02.061 0 .102-.02.142-.061.04-.04.061-.08.04-.142l-.181-1.943z" fill="#FA0"/><path d="M6.073 8.4c.708-.181 1.174-.586 1.74-.95.507-.325 1.033-.608 1.58-.77l-.668-1.133c-.04-.081-.122-.081-.162-.081-.04 0-.122.02-.162.1l-.992 1.681c-.304.506-.81.89-1.397 1.012l-1.68.364c.385 0 1.235-.1 1.74-.222z" fill="#fff"/><path d="M14.271 15.992c.04.06-.486.425-1.174.83-.688.405-1.275.668-1.316.607-.04-.06.486-.425 1.175-.83.688-.405 1.275-.668 1.315-.607z" fill="#FF8B10"/><path d="M4.555 16.923c-.04.06-.466-.142-.992-.445-.527-.304-.911-.587-.87-.628.04-.06.465.142.991.446.527.303.911.566.87.627z" fill="#FFA61F"/><path d="M6.518 2.49c.04.08-.364.384-.89.688-.527.304-.992.486-1.033.425-.04-.08.365-.384.89-.688.527-.304.993-.486 1.033-.425z" fill="#fff"/></g><defs><linearGradient id="paint0_linear" x1="7.047" y1="1.948" x2="9.829" y2="17.275" gradientUnits="userSpaceOnUse"><stop stop-color="#FFFFB5"/><stop offset=".201" stop-color="#FFFF53"/><stop offset=".308" stop-color="#FFF950"/><stop offset=".451" stop-color="#FFE846"/><stop offset=".613" stop-color="#FFCD36"/><stop offset=".789" stop-color="#FFA720"/><stop offset=".975" stop-color="#FF7604"/><stop offset="1" stop-color="#FF6F00"/></linearGradient><linearGradient id="paint1_linear" x1="6.56" y1="1.012" x2="10.398" y2="18.799" gradientUnits="userSpaceOnUse"><stop stop-color="#FF8C00"/><stop offset="1" stop-color="#FF3"/></linearGradient><linearGradient id="paint2_linear" x1="6.594" y1="1.169" x2="10.367" y2="18.655" gradientUnits="userSpaceOnUse"><stop stop-color="#FF3"/><stop offset="1" stop-color="#FF8C00"/></linearGradient><linearGradient id="paint3_linear" x1="7.746" y1="3.76" x2="9.708" y2="16.089" gradientUnits="userSpaceOnUse"><stop stop-color="#FF8C00"/><stop offset="1" stop-color="#FFCF33"/></linearGradient><linearGradient id="paint4_linear" x1="7.863" y1="3.856" x2="9.535" y2="15.895" gradientUnits="userSpaceOnUse"><stop stop-color="#E66903"/><stop offset="1" stop-color="#F06800"/></linearGradient><linearGradient id="paint6_linear" x1="3.448" y1="7.071" x2="13.643" y2="7.071" gradientUnits="userSpaceOnUse"><stop stop-color="#FFE21F"/><stop offset=".465" stop-color="#FFEC1E"/><stop offset="1" stop-color="#FFF01D"/></linearGradient><linearGradient id="paint7_linear" x1="7.379" y1="6.089" x2="10.635" y2="14.73" gradientUnits="userSpaceOnUse"><stop stop-color="#FFFB00"/><stop offset=".116" stop-color="#FE0"/><stop offset=".497" stop-color="#FFC900"/><stop offset=".805" stop-color="#FFB200"/><stop offset="1" stop-color="#FA0"/></linearGradient><radialGradient id="paint5_radial" cx="0" cy="0" r="1" gradientUnits="userSpaceOnUse" gradientTransform="translate(8.125 8.6) scale(5.60789)"><stop stop-color="#FFFF53"/><stop offset=".149" stop-color="#FFF44C"/><stop offset=".413" stop-color="#FFD638"/><stop offset=".757" stop-color="#FFA619"/><stop offset="1" stop-color="#FF8000"/></radialGradient><clipPath id="clip0"><path fill="#fff" d="M0 0h17.712v20H0z"/></clipPath></defs></svg>