<?xml version="1.0" encoding="utf-8"?><svg viewBox="0 0 163 48" xmlns="http://www.w3.org/2000/svg" xmlns:xlink="http://www.w3.org/1999/xlink"><style>:root>svg{display:none}:root>svg:target{display:block}</style><svg fill="none" viewBox="0 0 48 48" id="burger-btn" xmlns="http://www.w3.org/2000/svg"><path d="M6 36h36v-4H6v4zm0-10h36v-4H6v4zm0-14v4h36v-4H6z" fill="#fff"/></svg><svg fill="none" viewBox="0 0 19 20" id="coin" xmlns="http://www.w3.org/2000/svg"><g clip-path="url(#bclip0)"><path d="M15.56 16.397l-4.433 2.57a4.174 4.174 0 01-4.129 0l-4.433-2.57A4.1 4.1 0 01.5 12.834V7.713c0-1.478.79-2.834 2.065-3.563l4.433-2.571a4.173 4.173 0 014.13 0l4.433 2.57a4.124 4.124 0 012.064 3.564v5.121a4.1 4.1 0 01-2.064 3.563z" fill="url(#bpaint0_linear)"/><path d="M9.063 18.725c-.324 0-.648-.081-.931-.243l-5.709-3.3a1.861 1.861 0 01-.931-1.62V6.985c0-.668.364-1.296.931-1.62l5.709-3.3a1.88 1.88 0 01.93-.242c.325 0 .649.08.932.243l5.709 3.3c.587.343.93.95.93 1.619v6.579c0 .668-.364 1.295-.93 1.62l-5.709 3.299a1.881 1.881 0 01-.931.243z" fill="url(#bpaint1_linear)"/><path d="M9.063 18.583c-.304 0-.608-.081-.87-.223l-5.71-3.3a1.76 1.76 0 01-.87-1.497v-6.58c0-.627.324-1.194.87-1.497l5.71-3.3c.262-.162.566-.222.87-.222.303 0 .607.08.87.222l5.709 3.3c.526.303.87.89.87 1.498v6.579c0 .627-.324 1.194-.87 1.498l-5.709 3.3a1.854 1.854 0 01-.87.222z" fill="url(#bpaint2_linear)"/><path d="M11.796 15.81c-.243 0-.486-.04-.709-.142l-1.781-.77c-.081-.04-.162-.04-.243-.04-.081 0-.162.02-.243.04l-1.782.77a1.705 1.705 0 01-.708.142v-.142.142c-.486 0-.972-.203-1.296-.587a1.735 1.735 0 01-.445-1.357l.162-1.923a.593.593 0 00-.142-.445l-1.295-1.457c-.425-.466-.547-1.114-.365-1.721a1.734 1.734 0 011.296-1.174l1.903-.425a.612.612 0 00.384-.284l.992-1.68a1.75 1.75 0 011.519-.87 1.75 1.75 0 011.518.87l.992 1.68a.612.612 0 00.384.284l1.903.425a1.767 1.767 0 011.296 1.174c.202.607.06 1.235-.365 1.72l-1.295 1.458a.593.593 0 00-.142.445l.182 1.944a1.84 1.84 0 01-.445 1.356c-.304.364-.79.567-1.275.567z" fill="url(#bpaint3_linear)"/><path d="M11.796 15.688c-.223 0-.446-.04-.648-.142l-1.802-.769a.714.714 0 00-.283-.06.646.646 0 00-.284.06l-1.801.77a1.772 1.772 0 01-.648.141c-.466 0-.89-.202-1.215-.526a1.581 1.581 0 01-.404-1.255l.182-1.944a.672.672 0 00-.182-.546L3.415 9.959a1.612 1.612 0 01-.324-1.578 1.67 1.67 0 011.194-1.094l1.903-.425a.674.674 0 00.466-.344l.992-1.68c.303-.506.83-.81 1.397-.81.587 0 1.113.304 1.396.81l.992 1.68a.72.72 0 00.466.344l1.903.425a1.596 1.596 0 011.194 1.094c.182.546.06 1.153-.324 1.578l-1.296 1.458a.673.673 0 00-.182.546l.182 1.944c.041.465-.1.91-.404 1.255a1.593 1.593 0 01-1.175.526z" fill="url(#bpaint4_linear)"/><path d="M8.395 13.907l-1.782.77a.705.705 0 01-.971-.71l.182-1.943a1.657 1.657 0 00-.405-1.255L4.124 9.312a.695.695 0 01.364-1.134l1.903-.425a1.69 1.69 0 001.073-.79l.991-1.68a.7.7 0 011.195 0l.992 1.68a1.69 1.69 0 001.073.79l1.902.425c.506.122.709.75.365 1.134l-1.296 1.457c-.303.344-.445.81-.405 1.255l.183 1.944a.705.705 0 01-.972.708l-1.781-.77a1.652 1.652 0 00-1.316 0z" fill="url(#bpaint5_radial)"/><path d="M10.116 6.053l-.446-.77a.7.7 0 00-1.194 0l-.992 1.68a1.69 1.69 0 01-1.073.79l-1.903.425c-.465.101-.668.607-.465.992a.684.684 0 01.526-.85l1.903-.425a1.69 1.69 0 001.073-.79l.992-1.68a.7.7 0 011.194 0c-.02.02.364.648.385.628z" fill="url(#bpaint6_linear)"/><path d="M13.617 8.178l-1.902-.425a1.69 1.69 0 01-1.073-.79l-.243-.404.304.546a1.69 1.69 0 001.072.79l1.903.425c.203.04.365.182.466.344a.682.682 0 00-.527-.486z" fill="#FD0"/><path d="M5.703 14.13l.182-1.944c.02-.303-.02-.587-.142-.85.081.223.101.466.081.708l-.182 1.944c-.02.142.02.283.08.385a.498.498 0 01-.02-.243z" fill="#FC0"/><path d="M11.796 14.251c-.02 0-.061 0-.081-.02l-1.782-.77a2.167 2.167 0 00-1.74 0l-1.782.77c-.02.02-.06.02-.08.02a.184.184 0 01-.143-.06c-.04-.041-.06-.082-.04-.142l.182-1.944a2.203 2.203 0 00-.526-1.64L4.508 9.009c-.06-.08-.06-.142-.04-.182.02-.04.04-.101.141-.122l1.903-.425A2.166 2.166 0 007.91 7.267l.992-1.68a.186.186 0 01.162-.101c.04 0 .121.02.162.101l.992 1.68c.303.506.81.89 1.396 1.012l1.903.425c.101.02.122.081.142.122.02.04.02.121-.04.182l-1.296 1.458a2.123 2.123 0 00-.526 1.64l.182 1.943c0 .06-.02.1-.04.141a.218.218 0 01-.142.061z" fill="url(#bpaint7_linear)"/><path d="M11.796 12.085a2.17 2.17 0 01.364-1.417c-.02 0-.04.02-.06.02-.669.304-1.499.83-2.207 1.336-.648.466-1.417.689-2.207.891a3.435 3.435 0 01-1.437.06l-.101 1.053c0 .061.02.101.04.142.04.04.081.06.142.06.02 0 .06 0 .081-.02l1.781-.769a2.165 2.165 0 011.741 0l1.782.77c.02.02.06.02.08.02.061 0 .102-.02.142-.061.04-.04.061-.08.04-.142l-.181-1.943z" fill="#FA0"/><path d="M6.573 8.4c.708-.181 1.174-.586 1.74-.95.507-.325 1.033-.608 1.58-.77l-.668-1.133c-.04-.081-.122-.081-.162-.081-.04 0-.122.02-.162.1l-.992 1.681c-.304.506-.81.89-1.397 1.012l-1.68.364c.385 0 1.235-.1 1.74-.222z" fill="#fff"/><path d="M14.771 15.992c.04.06-.486.425-1.174.83-.688.405-1.275.668-1.316.607-.04-.06.486-.425 1.175-.83.688-.405 1.275-.668 1.315-.607z" fill="#FF8B10"/><path d="M5.055 16.923c-.04.06-.466-.142-.992-.445-.527-.304-.911-.587-.87-.628.04-.06.465.142.991.446.527.303.911.566.87.627z" fill="#FFA61F"/><path d="M7.018 2.49c.04.08-.364.384-.89.688-.527.304-.992.486-1.033.425-.04-.08.364-.384.89-.688.527-.304.993-.486 1.033-.425z" fill="#fff"/></g><defs><linearGradient id="bpaint0_linear" x1="7.547" y1="1.948" x2="10.329" y2="17.275" gradientUnits="userSpaceOnUse"><stop stop-color="#FFFFB5"/><stop offset=".201" stop-color="#FFFF53"/><stop offset=".308" stop-color="#FFF950"/><stop offset=".451" stop-color="#FFE846"/><stop offset=".613" stop-color="#FFCD36"/><stop offset=".789" stop-color="#FFA720"/><stop offset=".975" stop-color="#FF7604"/><stop offset="1" stop-color="#FF6F00"/></linearGradient><linearGradient id="bpaint1_linear" x1="7.06" y1="1.012" x2="10.898" y2="18.799" gradientUnits="userSpaceOnUse"><stop stop-color="#FF8C00"/><stop offset="1" stop-color="#FF3"/></linearGradient><linearGradient id="bpaint2_linear" x1="7.094" y1="1.169" x2="10.867" y2="18.655" gradientUnits="userSpaceOnUse"><stop stop-color="#FF3"/><stop offset="1" stop-color="#FF8C00"/></linearGradient><linearGradient id="bpaint3_linear" x1="8.246" y1="3.76" x2="10.208" y2="16.089" gradientUnits="userSpaceOnUse"><stop stop-color="#FF8C00"/><stop offset="1" stop-color="#FFCF33"/></linearGradient><linearGradient id="bpaint4_linear" x1="8.363" y1="3.856" x2="10.035" y2="15.895" gradientUnits="userSpaceOnUse"><stop stop-color="#E66903"/><stop offset="1" stop-color="#F06800"/></linearGradient><linearGradient id="bpaint6_linear" x1="3.948" y1="7.071" x2="14.143" y2="7.071" gradientUnits="userSpaceOnUse"><stop stop-color="#FFE21F"/><stop offset=".465" stop-color="#FFEC1E"/><stop offset="1" stop-color="#FFF01D"/></linearGradient><linearGradient id="bpaint7_linear" x1="7.879" y1="6.089" x2="11.135" y2="14.73" gradientUnits="userSpaceOnUse"><stop stop-color="#FFFB00"/><stop offset=".116" stop-color="#FE0"/><stop offset=".497" stop-color="#FFC900"/><stop offset=".805" stop-color="#FFB200"/><stop offset="1" stop-color="#FA0"/></linearGradient><radialGradient id="bpaint5_radial" cx="0" cy="0" r="1" gradientUnits="userSpaceOnUse" gradientTransform="translate(8.625 8.6) scale(5.60789)"><stop stop-color="#FFFF53"/><stop offset=".149" stop-color="#FFF44C"/><stop offset=".413" stop-color="#FFD638"/><stop offset=".757" stop-color="#FFA619"/><stop offset="1" stop-color="#FF8000"/></radialGradient><clipPath id="bclip0"><path fill="#fff" transform="translate(.5)" d="M0 0h17.712v20H0z"/></clipPath></defs></svg><svg fill="none" viewBox="0 0 18 18" id="crown" xmlns="http://www.w3.org/2000/svg"><g clip-path="url(#cclip0)" fill="#87888A"><path d="M16.197 6.148a.75.75 0 00-.832-.04L12.226 7.99 9.624 4.085c-.029-.043-.076-.063-.111-.096l.722-.724a.377.377 0 000-.53l-.97-.97a.376.376 0 00-.53 0l-.97.97a.376.376 0 000 .53l.723.724c-.036.033-.083.053-.111.096L5.774 7.99 2.636 6.107a.755.755 0 00-.833.04.754.754 0 00-.281.785l1.5 6a.752.752 0 00.728.569h10.5a.75.75 0 00.728-.569l1.5-6a.754.754 0 00-.281-.784zM3 14.25h12v1.5H3v-1.5z"/></g><defs><clipPath id="cclip0"><path fill="#fff" d="M0 0h18v18H0z"/></clipPath></defs></svg><svg fill="none" viewBox="0 0 19 18" id="discord" xmlns="http://www.w3.org/2000/svg"><path d="M15.485 3.877c-1.433-1.153-3.7-1.349-3.797-1.356a.357.357 0 00-.356.211 2.39 2.39 0 00-.11.3c.949.16 2.113.482 3.166 1.136a.36.36 0 11-.38.612C12.198 3.656 9.936 3.6 9.5 3.6c-.436 0-2.699.056-4.508 1.18a.36.36 0 01-.38-.612c1.053-.652 2.218-.976 3.165-1.135-.054-.178-.104-.29-.108-.3a.355.355 0 00-.357-.212c-.097.007-2.364.203-3.817 1.372-.758.701-2.275 4.802-2.275 8.347 0 .063.017.124.048.179 1.046 1.839 3.902 2.32 4.553 2.341h.011a.36.36 0 00.292-.148l.658-.905c-1.776-.459-2.683-1.238-2.735-1.284a.36.36 0 01.477-.54c.02.02 1.691 1.437 4.976 1.437 3.29 0 4.961-1.423 4.978-1.437a.36.36 0 01.475.54c-.052.046-.959.825-2.735 1.284l.658.905a.36.36 0 00.292.148h.01c.652-.021 3.508-.502 4.554-2.341a.362.362 0 00.048-.179c0-3.545-1.517-7.646-2.295-8.363zM7.16 10.8c-.696 0-1.26-.644-1.26-1.44 0-.796.564-1.44 1.26-1.44.696 0 1.26.644 1.26 1.44 0 .796-.564 1.44-1.26 1.44zm4.68 0c-.696 0-1.26-.644-1.26-1.44 0-.796.564-1.44 1.26-1.44.696 0 1.26.644 1.26 1.44 0 .796-.564 1.44-1.26 1.44z" fill="#fff"/></svg><svg fill="none" viewBox="0 0 18 18" id="faq" xmlns="http://www.w3.org/2000/svg"><g clip-path="url(#eclip0)"><path d="M9 1.5C4.864 1.5 1.5 4.865 1.5 9c0 4.136 3.364 7.5 7.5 7.5s7.5-3.364 7.5-7.5c0-4.135-3.364-7.5-7.5-7.5zm0 12.188a.938.938 0 110-1.876.938.938 0 010 1.876zm.75-3.282v.844h-1.5V9H9a1.5 1.5 0 10-1.5-1.5H6c0-1.654 1.346-3 3-3s3 1.346 3 3a3.007 3.007 0 01-2.25 2.906z" fill="#87888A"/></g><defs><clipPath id="eclip0"><path fill="#fff" d="M0 0h18v18H0z"/></clipPath></defs></svg><svg fill="none" viewBox="0 0 18 18" id="fb" xmlns="http://www.w3.org/2000/svg"><path d="M11.998 2.989h1.643V.127A21.22 21.22 0 0011.247 0c-2.37 0-3.992 1.49-3.992 4.23v2.52H4.64v3.2h2.615V18h3.205V9.95h2.509l.398-3.2H10.46V4.547c.001-.924.25-1.557 1.539-1.557z" fill="#fff"/></svg><svg fill="none" viewBox="0 0 163 45" id="logo" xmlns="http://www.w3.org/2000/svg"><path d="M58.403 28.737c-1.185 0-2.202-.174-3.05-.524-.85-.35-1.492-.805-1.929-1.366a3.298 3.298 0 01-.673-1.872c0-.1.037-.187.112-.262a.412.412 0 01.3-.13h2.358c.15 0 .268.03.355.093.1.05.2.13.3.243.162.325.424.593.786.805.362.212.842.318 1.441.318.711 0 1.254-.112 1.629-.337.374-.224.561-.53.561-.917 0-.274-.1-.5-.3-.674-.187-.175-.486-.33-.898-.468-.412-.137-1.023-.293-1.834-.468-1.498-.312-2.62-.767-3.37-1.366-.735-.611-1.104-1.479-1.104-2.602 0-.76.213-1.44.637-2.04.424-.599 1.03-1.067 1.815-1.404.786-.336 1.704-.505 2.752-.505 1.085 0 2.027.187 2.826.562.799.374 1.404.848 1.816 1.422.424.562.648 1.117.673 1.666a.381.381 0 01-.393.393h-2.47a.832.832 0 01-.375-.075.751.751 0 01-.243-.243c-.075-.287-.28-.53-.618-.73-.324-.2-.73-.3-1.216-.3-.562 0-.992.1-1.292.3-.3.2-.449.493-.449.88 0 .262.081.48.243.655.175.174.45.337.824.486.387.137.936.281 1.647.43 1.16.213 2.084.481 2.77.806.699.311 1.21.723 1.535 1.235.324.499.487 1.13.487 1.89 0 .836-.244 1.566-.73 2.19-.474.612-1.142 1.086-2.003 1.423-.849.324-1.822.486-2.92.486zm7.994-.187a.498.498 0 01-.337-.13.498.498 0 01-.131-.338V15.916c0-.137.043-.25.13-.337a.498.498 0 01.338-.13h2.358c.137 0 .25.043.337.13.087.088.131.2.131.337v4.155l3.463-4.267c.15-.237.393-.356.73-.356h2.695c.112 0 .206.044.28.131a.36.36 0 01.113.262.43.43 0 01-.056.225l-4.492 5.652 4.829 6.215c.05.05.075.124.075.224s-.038.194-.113.28a.38.38 0 01-.28.113h-2.79a.922.922 0 01-.748-.374l-3.706-4.623v4.53c0 .137-.044.249-.131.336a.456.456 0 01-.337.131h-2.358zm12.41 0a.499.499 0 01-.336-.13.498.498 0 01-.131-.338V15.916c0-.137.043-.25.13-.337a.498.498 0 01.338-.13h2.508c.137 0 .25.043.337.13.1.088.15.2.15.337v12.166c0 .137-.05.25-.15.337a.456.456 0 01-.337.131h-2.508zm6.069 0a.498.498 0 01-.337-.13.498.498 0 01-.13-.338V15.916c0-.137.043-.25.13-.337a.498.498 0 01.337-.13h1.984c.312 0 .524.118.636.355l4.567 7.187v-7.075c0-.137.044-.25.131-.337a.498.498 0 01.337-.13h2.246c.137 0 .25.043.337.13.087.088.131.2.131.337v12.148a.522.522 0 01-.13.355.456.456 0 01-.338.131h-2.002a.67.67 0 01-.618-.355l-4.567-6.926v6.813a.498.498 0 01-.131.337.456.456 0 01-.337.131h-2.246zm17.87.187c-1.186 0-2.202-.174-3.051-.524-.848-.35-1.491-.805-1.928-1.366a3.297 3.297 0 01-.674-1.872c0-.1.038-.187.113-.262a.412.412 0 01.3-.13h2.358c.149 0 .268.03.355.093.1.05.2.13.3.243.162.325.424.593.786.805.362.212.842.318 1.441.318.711 0 1.254-.112 1.628-.337.375-.224.562-.53.562-.917 0-.274-.1-.5-.3-.674-.187-.175-.486-.33-.898-.468-.412-.137-1.023-.293-1.834-.468-1.498-.312-2.62-.767-3.37-1.366-.736-.611-1.104-1.479-1.104-2.602 0-.76.212-1.44.637-2.04.424-.599 1.03-1.067 1.815-1.404.786-.336 1.703-.505 2.752-.505 1.085 0 2.027.187 2.826.562.798.374 1.404.848 1.815 1.422.425.562.649 1.117.674 1.666a.382.382 0 01-.393.393h-2.471a.833.833 0 01-.374-.075.755.755 0 01-.243-.243c-.075-.287-.281-.53-.618-.73-.324-.2-.73-.3-1.216-.3-.562 0-.992.1-1.292.3-.299.2-.449.493-.449.88 0 .262.081.48.243.655.175.174.449.337.824.486.387.137.936.281 1.647.43 1.16.213 2.084.481 2.77.806.699.311 1.21.723 1.535 1.235.324.499.486 1.13.486 1.89 0 .836-.243 1.566-.73 2.19-.474.612-1.141 1.086-2.002 1.423-.849.324-1.822.486-2.92.486zm7.9-.187a.47.47 0 01-.318-.112.472.472 0 01-.113-.318v-1.348c0-.125.038-.225.113-.3a.432.432 0 01.318-.13h1.348c.124 0 .23.043.318.13a.375.375 0 01.131.3v1.348c0 .124-.044.23-.131.318a.474.474 0 01-.318.112h-1.348zm4.962 0a.47.47 0 01-.318-.112.471.471 0 01-.112-.318V15.879c0-.125.037-.225.112-.3a.432.432 0 01.318-.13h.992c.125 0 .225.043.3.13a.376.376 0 01.131.3v11.043h6.214c.137 0 .243.043.318.13.087.076.131.182.131.319v.749c0 .124-.044.23-.131.318a.474.474 0 01-.318.112h-7.637zm9.236 0a.36.36 0 01-.262-.112.362.362 0 01-.112-.262c0-.1.006-.169.019-.206l4.642-12.11c.099-.274.299-.412.599-.412h1.272c.3 0 .499.138.599.412l4.623 12.11.038.206a.36.36 0 01-.113.262.357.357 0 01-.262.112h-.954a.482.482 0 01-.318-.094.588.588 0 01-.15-.224l-1.03-2.658h-6.139l-1.029 2.658a.527.527 0 01-.169.224.45.45 0 01-.299.094h-.955zm8.049-4.585l-2.527-6.645-2.527 6.645h5.054zm5.8 4.585a.474.474 0 01-.318-.112.471.471 0 01-.112-.318V15.898c0-.138.037-.244.112-.319a.435.435 0 01.318-.13h.861c.225 0 .381.087.468.261l6.214 9.546v-9.358a.43.43 0 01.113-.319.432.432 0 01.318-.13h.898c.137 0 .244.043.318.13.088.075.131.181.131.319V28.1a.43.43 0 01-.131.318.372.372 0 01-.299.131h-.899c-.187 0-.336-.087-.449-.262l-6.195-9.452v9.284c0 .124-.044.23-.131.318a.47.47 0 01-.318.112h-.899zm13.014 0a.474.474 0 01-.318-.112.471.471 0 01-.112-.318V15.898c0-.138.037-.244.112-.319a.435.435 0 01.318-.13h4.249c1.884 0 3.244.424 4.08 1.272.836.836 1.273 2.103 1.311 3.8.012.361.018.848.018 1.46 0 .61-.006 1.104-.018 1.478-.038 1.186-.237 2.153-.599 2.901-.35.736-.905 1.285-1.666 1.647-.761.362-1.772.543-3.032.543h-4.343zm4.249-1.59c.861 0 1.541-.12 2.04-.356.512-.238.88-.612 1.105-1.123.237-.525.368-1.223.393-2.097a58.66 58.66 0 00.037-1.404c0-.2-.012-.66-.037-1.384-.025-1.236-.319-2.134-.88-2.696-.562-.574-1.479-.86-2.751-.86h-2.752v9.92h2.845z" fill="#fff"/><path d="M19.329 1.726a5.978 5.978 0 015.978 0l13.35 7.707a5.978 5.978 0 012.989 5.177v15.415c0 2.136-1.14 4.11-2.99 5.178l-13.35 7.707a5.978 5.978 0 01-5.977 0l-13.35-7.707a5.978 5.978 0 01-2.989-5.178V14.61c0-2.135 1.14-4.109 2.989-5.177l13.35-7.707z" fill="url(#gpaint0_linear)"/><path fill-rule="evenodd" clip-rule="evenodd" d="M19.502 8.277a5.26 5.26 0 015.26 0l8.104 4.679a5.26 5.26 0 012.63 4.556v9.357a5.26 5.26 0 01-2.63 4.556l-8.103 4.678a5.261 5.261 0 01-5.261 0l-8.104-4.678a5.26 5.26 0 01-2.63-4.556v-9.357a5.26 5.26 0 012.63-4.556l8.104-4.68zm-8.418 13.42h2.907a8.357 8.357 0 017.649-7.648v-2.907c-5.67.334-10.222 4.887-10.556 10.556zm11.891 8.985a8.357 8.357 0 007.65-7.65h2.906c-.334 5.67-4.887 10.223-10.556 10.557v-2.907zm-8.984-7.65h-2.907c.334 5.67 4.887 10.223 10.556 10.557v-2.907a8.357 8.357 0 01-7.65-7.65zm8.984-8.983v-2.907c5.67.334 10.222 4.887 10.556 10.556h-2.907a8.357 8.357 0 00-7.649-7.65zm-3.46 7.649h2.125v-2.126a2.881 2.881 0 00-2.125 2.126zm3.46 4.821a4.218 4.218 0 003.487-3.486h2.822a7.02 7.02 0 01-6.309 6.308V26.52zm-7.644-4.821h2.822a4.217 4.217 0 013.487-3.487V15.39a7.02 7.02 0 00-6.309 6.309zm7.644 0v-2.126a2.881 2.881 0 012.125 2.126h-2.125zm-4.822 1.335h-2.822a7.02 7.02 0 006.309 6.309V26.52a4.217 4.217 0 01-3.487-3.487zm3.487 2.125a2.88 2.88 0 01-2.125-2.125h2.125v2.125zm1.335-9.77v2.823c1.786.286 3.2 1.7 3.487 3.487h2.822a7.02 7.02 0 00-6.309-6.31zm0 9.77v-2.125H25.1a2.88 2.88 0 01-2.125 2.125z" fill="#fff"/><defs><linearGradient id="gpaint0_linear" x1="22.318" y1="11.641" x2="22.318" y2="59.038" gradientUnits="userSpaceOnUse"><stop stop-color="#FF113C"/><stop offset="1" stop-color="#930000"/></linearGradient></defs></svg><svg fill="none" viewBox="0 0 18 18" id="logout" xmlns="http://www.w3.org/2000/svg"><path d="M13.5 1.5H5.25c-.827 0-1.5.674-1.5 1.5v5.25h5.693L7.72 6.531l1.06-1.062 3.531 3.524-3.53 3.537-1.062-1.06 1.718-1.72H3.75V15c0 .827.673 1.5 1.5 1.5h8.25c.828 0 1.5-.673 1.5-1.5V3c0-.826-.672-1.5-1.5-1.5z" fill="#87888A"/></svg><svg fill="none" viewBox="0 0 18 12" id="russia" xmlns="http://www.w3.org/2000/svg"><g clip-path="url(#iclip0)"><path d="M0 0v12h18V0H0z" fill="#F0F0F0"/><path d="M0 0h18v12H0V0z" fill="#0052B4"/><path d="M0 0h18v4H0V0z" fill="#F0F0F0"/><path d="M0 8h18v4H0V8z" fill="#D80027"/></g><defs><clipPath id="iclip0"><rect width="18" height="12" rx="1.5" fill="#fff"/></clipPath></defs></svg><svg fill="none" viewBox="0 0 19 17" id="steam" xmlns="http://www.w3.org/2000/svg"><g clip-path="url(#jclip0)"><path d="M16.902 5.386c0 .689-.23 1.246-.722 1.738a2.327 2.327 0 01-1.737.721c-.689 0-1.246-.23-1.738-.721a2.327 2.327 0 01-.721-1.738c0-.688.23-1.246.721-1.737a2.327 2.327 0 011.738-.722c.688 0 1.246.23 1.737.722.46.491.722 1.082.722 1.737zm-7.77 7.475c0-.688-.23-1.278-.722-1.77-.491-.492-1.082-.721-1.77-.721-.197 0-.36.032-.557.065l1.049.426c.524.197.885.558 1.114 1.082.23.492.23 1.017 0 1.508a1.77 1.77 0 01-1.081 1.082 1.81 1.81 0 01-1.541 0c-.132-.065-.361-.13-.623-.262a7.18 7.18 0 01-.623-.262c.23.393.524.721.918.983.393.263.82.36 1.311.36.689 0 1.279-.229 1.77-.72.525-.492.755-1.082.755-1.77zm8.36-7.442c0-.852-.295-1.574-.885-2.164-.59-.59-1.312-.885-2.164-.885-.853 0-1.574.295-2.164.885-.59.59-.885 1.312-.885 2.164 0 .852.295 1.574.885 2.164.59.59 1.311.885 2.164.885.852 0 1.574-.295 2.164-.885.59-.59.885-1.312.885-2.164zm1.508 0c0 1.279-.459 2.36-1.344 3.246-.885.885-1.967 1.344-3.246 1.344l-4.393 3.213c-.066.852-.46 1.606-1.082 2.197-.656.59-1.41.885-2.295.885-.82 0-1.54-.263-2.164-.754-.623-.525-1.016-1.148-1.18-1.935l-2.328-.95V8.337L4.87 9.91a3.24 3.24 0 011.737-.492c.099 0 .197 0 .36.033L9.82 5.353c0-1.245.46-2.327 1.377-3.212.885-.853 1.967-1.312 3.213-1.312s2.328.46 3.246 1.344C18.54 3.058 19 4.14 19 5.42z" fill="#fff"/></g><defs><clipPath id="jclip0"><path fill="#fff" transform="translate(.968 .83)" d="M0 0h18.032v15.442H0z"/></clipPath></defs></svg><svg fill="none" viewBox="0 0 19 18" id="telegram" xmlns="http://www.w3.org/2000/svg"><g clip-path="url(#kclip0)"><path d="M7.563 11.386l-.298 4.188c.426 0 .61-.183.832-.403l1.997-1.909 4.139 3.031c.758.423 1.293.2 1.498-.698l2.717-12.73c.241-1.122-.405-1.56-1.145-1.286L1.336 7.694c-1.09.423-1.074 1.03-.186 1.306l4.083 1.27 9.482-5.934c.446-.295.852-.132.518.163l-7.67 6.888z" fill="#fff"/></g><defs><clipPath id="kclip0"><path fill="#fff" transform="translate(.5)" d="M0 0h18v18H0z"/></clipPath></defs></svg><svg fill="none" viewBox="0 0 20 20" id="vk" xmlns="http://www.w3.org/2000/svg"><g clip-path="url(#lclip0)"><path d="M19.822 14.483c-.054-.09-.386-.81-1.983-2.293-1.671-1.552-1.447-1.3.567-3.984 1.226-1.635 1.717-2.633 1.563-3.06-.146-.406-1.048-.299-1.048-.299l-3 .017s-.221-.03-.387.07c-.161.096-.265.321-.265.321s-.475 1.265-1.11 2.34c-1.335 2.27-1.87 2.39-2.089 2.25-.508-.33-.38-1.321-.38-2.025 0-2.2.333-3.117-.65-3.354-.327-.078-.567-.13-1.402-.14-1.07-.01-1.977.004-2.49.255-.342.167-.605.54-.444.562.198.026.647.12.885.445.309.418.297 1.359.297 1.359s.178 2.589-.413 2.91c-.405.222-.96-.229-2.152-2.289-.61-1.054-1.072-2.22-1.072-2.22s-.088-.218-.247-.334c-.192-.14-.461-.186-.461-.186l-2.853.018s-.428.012-.585.198c-.14.166-.011.508-.011.508s2.233 5.224 4.761 7.858c2.32 2.414 4.952 2.256 4.952 2.256h1.193s.36-.04.544-.238c.17-.183.164-.524.164-.524s-.024-1.601.72-1.837c.732-.232 1.673 1.547 2.67 2.232.753.518 1.326.404 1.326.404l2.666-.037s1.395-.086.734-1.183z" fill="#fff"/></g><defs><clipPath id="lclip0"><path fill="#fff" transform="translate(.038 .038)" d="M0 0h19.962v19.962H0z"/></clipPath></defs></svg></svg>