<svg width="24" height="24" viewBox="0 0 24 24" fill="none" xmlns="http://www.w3.org/2000/svg">
<g clip-path="url(#clip0)">
<path d="M21.596 8.197C21.4371 8.07923 21.2468 8.01123 21.0492 8.00162C20.8516 7.992 20.6556 8.04121 20.486 8.143L16.303 10.653L12.832 5.44601C12.794 5.38901 12.731 5.36301 12.684 5.31801L13.647 4.35401C13.7402 4.25998 13.7926 4.13293 13.7926 4.00051C13.7926 3.86809 13.7402 3.74103 13.647 3.64701L12.354 2.35401C12.26 2.26076 12.1329 2.20844 12.0005 2.20844C11.8681 2.20844 11.741 2.26076 11.647 2.35401L10.354 3.64701C10.2607 3.74103 10.2084 3.86809 10.2084 4.00051C10.2084 4.13293 10.2607 4.25998 10.354 4.35401L11.317 5.31801C11.269 5.36301 11.207 5.38901 11.169 5.44601L7.69799 10.653L3.51499 8.143C3.34501 8.04176 3.14896 7.99289 2.95135 8.00249C2.75373 8.0121 2.56334 8.07975 2.40399 8.197C2.24555 8.31516 2.12548 8.47742 2.05878 8.66347C1.99208 8.84951 1.98171 9.0511 2.02899 9.24301L4.02899 17.243C4.14099 17.688 4.54099 18.001 4.99999 18.001H19C19.459 18.001 19.859 17.689 19.971 17.243L21.971 9.24301C22.0183 9.0511 22.0079 8.84951 21.9412 8.66347C21.8745 8.47742 21.7544 8.31516 21.596 8.197Z" fill="#87888A"/>
<path d="M4 19.001H20V21.001H4V19.001Z" fill="#87888A"/>
</g>
<defs>
<clipPath id="clip0">
<rect width="24" height="24" fill="white"/>
</clipPath>
</defs>
</svg>
