<svg width="64" height="64" viewBox="0 0 64 64" fill="none" xmlns="http://www.w3.org/2000/svg">
<g clip-path="url(#clip0)">
<path opacity="0.7" d="M61.4246 32.4C61.4246 29.2678 60.9374 26.2053 59.9629 23.3516L61.8422 19.941C60.3109 16.252 58.014 12.7718 55.0211 9.77889C52.0281 6.78594 48.5479 4.48903 44.859 2.95775L41.4484 4.83704C38.5947 3.9322 35.6017 3.37537 32.4 3.37537C29.1982 3.37537 26.2052 3.8626 23.3515 4.83704L19.9409 2.95775C16.252 4.48903 12.7718 6.78594 9.77884 9.77889C6.78589 12.7718 4.48898 16.252 2.9577 19.941L4.837 23.3516C3.93215 26.2053 3.37532 29.1982 3.37532 32.4C3.37532 35.5322 3.86255 38.5947 4.837 41.4484L2.9577 44.859C4.48898 48.548 6.78589 52.0282 9.77884 55.0211C12.7718 58.0141 16.252 60.311 19.9409 61.8422L23.3515 59.963C26.2052 60.8678 29.1982 61.4246 32.4 61.4246C35.5321 61.4246 38.5947 60.9374 41.4484 59.963L44.859 61.8422C48.5479 60.311 52.0281 58.0141 55.0211 55.0211C58.014 52.0282 60.3109 48.548 61.8422 44.859L59.9629 41.4484C60.9374 38.5947 61.4246 35.5322 61.4246 32.4ZM4.07136 32.4C4.07136 16.8088 16.8088 4.07141 32.4 4.07141C47.9911 4.07141 60.7285 16.8088 60.7285 32.4C60.7285 47.9912 47.9911 60.7286 32.4 60.7286C16.7392 60.7286 4.07136 47.9912 4.07136 32.4Z" fill="#FF2929"/>
<path opacity="0.5" d="M32.4 2.33132C35.3233 2.33132 38.1771 2.74894 40.8916 3.51458L42.7013 2.54013C39.4995 1.42648 36.0194 0.800049 32.4 0.800049C28.7806 0.800049 25.3005 1.42648 22.0987 2.54013L23.9084 3.51458C26.6229 2.74894 29.4767 2.33132 32.4 2.33132Z" fill="#FF2929"/>
<path opacity="0.5" d="M2.33132 32.4C2.33132 29.4767 2.74894 26.6229 3.51458 23.9084L2.54013 22.0987C1.42648 25.3005 0.800049 28.7806 0.800049 32.4C0.800049 36.0194 1.42648 39.4995 2.54013 42.7013L3.51458 40.8916C2.74894 38.1771 2.33132 35.3233 2.33132 32.4Z" fill="#FF2929"/>
<path opacity="0.5" d="M32.4 62.4687C29.4767 62.4687 26.6229 62.0511 23.9084 61.2854L22.0987 62.2599C25.3005 63.3735 28.7806 64 32.4 64C36.0194 64 39.4995 63.3735 42.7013 62.2599L40.8916 61.2854C38.1771 62.0511 35.3233 62.4687 32.4 62.4687Z" fill="#FF2929"/>
<path opacity="0.5" d="M62.2598 22.0987L61.2854 23.9084C62.051 26.6229 62.4687 29.4071 62.4687 32.4C62.4687 35.3929 62.051 38.1771 61.2854 40.8916L62.2598 42.7013C63.3735 39.4995 63.9999 36.0194 63.9999 32.4C63.9999 28.7806 63.3735 25.3005 62.2598 22.0987Z" fill="#FF2929"/>
<path d="M12.215 38.3859H8.66522C9.98769 43.6062 12.9806 48.1304 17.0176 51.4017L19.4538 48.9656C16.0432 46.3207 13.4679 42.6317 12.215 38.3859Z" fill="#FF2929"/>
<path d="M11.3102 32.4C11.3102 28.7806 12.2151 25.3701 13.8856 22.3771L11.3798 19.8714C9.15252 23.5604 7.89966 27.8062 7.89966 32.4C7.89966 33.3048 7.96926 34.1401 8.03886 34.9753H11.4494C11.3798 34.1401 11.3102 33.3048 11.3102 32.4Z" fill="#FF2929"/>
<path d="M53.4202 32.4C53.4202 36.0194 52.5153 39.4299 50.8448 42.4229L53.3506 44.9286C55.5779 41.2396 56.8307 36.9938 56.8307 32.4C56.8307 31.4952 56.7611 30.6599 56.6915 29.8247H53.281C53.4202 30.6599 53.4202 31.4952 53.4202 32.4Z" fill="#FF2929"/>
<path d="M47.7127 13.3983L45.3462 15.7648C48.7568 18.4097 51.3321 22.0987 52.5849 26.3445H56.1347C54.8123 21.1938 51.8193 16.6696 47.7127 13.3983Z" fill="#FF2929"/>
<path d="M48.9657 45.3462C46.3208 48.7568 42.6318 51.3321 38.386 52.585V56.1348C43.6062 54.8123 48.1305 51.8194 51.4018 47.7824L48.9657 45.3462Z" fill="#FF2929"/>
<path d="M29.8247 11.519C30.6599 11.3798 31.5648 11.3798 32.4 11.3798C36.0194 11.3798 39.43 12.2846 42.4229 13.9551L44.9286 11.4494C41.2397 9.22206 36.9939 7.9692 32.4 7.9692C31.4952 7.9692 30.6599 8.0388 29.8247 8.10841V11.519Z" fill="#FF2929"/>
<path d="M34.9753 53.281C34.1401 53.4202 33.2353 53.4202 32.4 53.4202C28.7806 53.4202 25.3701 52.5154 22.3771 50.8449L19.8714 53.3506C23.5604 55.5779 27.8062 56.8308 32.4 56.8308C33.3049 56.8308 34.1401 56.7612 34.9753 56.6916V53.281Z" fill="#FF2929"/>
<path d="M15.7648 19.4538C18.4097 16.0432 22.0987 13.4679 26.3445 12.215V8.66523C21.1243 9.9877 16.6 12.9806 13.3287 17.0176L15.7648 19.4538Z" fill="#FF2929"/>
<g opacity="0.4">
<g opacity="0.4">
<path opacity="0.4" d="M31.8432 5.11546H31.356V5.60268H31.8432V5.11546Z" fill="#FF2929"/>
<path opacity="0.5" d="M31.7735 5.74189H31.4951V6.0203H31.7735V5.74189Z" fill="#FF2929"/>
<path opacity="0.2" d="M31.7039 6.22911H31.4951V6.43792H31.7039V6.22911Z" fill="#FF2929"/>
</g>
<g opacity="0.4">
<path opacity="0.4" d="M32.6784 5.11546H32.1912V5.60268H32.6784V5.11546Z" fill="#FF2929"/>
<path opacity="0.5" d="M32.5392 5.74189H32.2607V6.0203H32.5392V5.74189Z" fill="#FF2929"/>
<path opacity="0.2" d="M32.4696 6.22911H32.2607V6.43792H32.4696V6.22911Z" fill="#FF2929"/>
</g>
<g opacity="0.4">
<path opacity="0.4" d="M33.4441 5.11546H32.9569V5.60268H33.4441V5.11546Z" fill="#FF2929"/>
<path opacity="0.5" d="M33.3049 5.74189H33.0265V6.0203H33.3049V5.74189Z" fill="#FF2929"/>
<path opacity="0.2" d="M33.2353 6.22911H33.0265V6.43792H33.2353V6.22911Z" fill="#FF2929"/>
</g>
</g>
<g opacity="0.4">
<g opacity="0.4">
<path opacity="0.4" d="M22.56 6.92706L22.1022 7.09379L22.269 7.55159L22.7268 7.38486L22.56 6.92706Z" fill="#FF2929"/>
<path opacity="0.5" d="M22.6757 7.58619L22.4141 7.68149L22.5094 7.94309L22.771 7.84778L22.6757 7.58619Z" fill="#FF2929"/>
<path opacity="0.2" d="M22.8206 8.00642L22.6244 8.07783L22.6958 8.27405L22.892 8.20264L22.8206 8.00642Z" fill="#FF2929"/>
</g>
<g opacity="0.4">
<path opacity="0.4" d="M23.3177 6.63483L22.8599 6.80156L23.0267 7.25935L23.4844 7.09263L23.3177 6.63483Z" fill="#FF2929"/>
<path opacity="0.5" d="M23.4326 7.29427L23.171 7.38954L23.2663 7.65114L23.5279 7.55587L23.4326 7.29427Z" fill="#FF2929"/>
<path opacity="0.2" d="M23.513 7.73713L23.3168 7.80861L23.3883 8.00481L23.5845 7.93333L23.513 7.73713Z" fill="#FF2929"/>
</g>
<g opacity="0.4">
<path opacity="0.4" d="M24.0116 6.36722L23.5538 6.5339L23.7205 6.99174L24.1783 6.82506L24.0116 6.36722Z" fill="#FF2929"/>
<path opacity="0.5" d="M24.1263 7.02727L23.8647 7.12243L23.9598 7.38408L24.2215 7.28892L24.1263 7.02727Z" fill="#FF2929"/>
<path opacity="0.2" d="M24.2053 7.46967L24.009 7.54108L24.0804 7.7373L24.2767 7.66589L24.2053 7.46967Z" fill="#FF2929"/>
</g>
</g>
<g opacity="0.4">
<g opacity="0.4">
<path opacity="0.4" d="M14.4512 11.8349L14.078 12.1481L14.3912 12.5213L14.7644 12.2081L14.4512 11.8349Z" fill="#FF2929"/>
<path opacity="0.5" d="M14.7911 12.3539L14.5779 12.5329L14.7569 12.7461L14.9701 12.5671L14.7911 12.3539Z" fill="#FF2929"/>
<path opacity="0.2" d="M15.0293 12.7393L14.8693 12.8735L15.0035 13.0335L15.1635 12.8993L15.0293 12.7393Z" fill="#FF2929"/>
</g>
<g opacity="0.4">
<path opacity="0.4" d="M15.0733 11.322L14.7001 11.6352L15.0133 12.0084L15.3865 11.6952L15.0733 11.322Z" fill="#FF2929"/>
<path opacity="0.5" d="M15.3597 11.8866L15.1464 12.0655L15.3253 12.2788L15.5386 12.0999L15.3597 11.8866Z" fill="#FF2929"/>
<path opacity="0.2" d="M15.5982 12.2711L15.4382 12.4053L15.5724 12.5653L15.7324 12.4311L15.5982 12.2711Z" fill="#FF2929"/>
</g>
<g opacity="0.4">
<path opacity="0.4" d="M15.6432 10.854L15.27 11.1672L15.5833 11.5404L15.9565 11.2272L15.6432 10.854Z" fill="#FF2929"/>
<path opacity="0.5" d="M15.929 11.4172L15.7158 11.5962L15.8948 11.8095L16.108 11.6305L15.929 11.4172Z" fill="#FF2929"/>
<path opacity="0.2" d="M16.2187 11.7577L16.0588 11.8919L16.193 12.0519L16.3529 11.9177L16.2187 11.7577Z" fill="#FF2929"/>
</g>
</g>
<g opacity="0.4">
<g opacity="0.4">
<path opacity="0.4" d="M8.50323 19.2253L8.25952 19.6472L8.68141 19.8909L8.92512 19.469L8.50323 19.2253Z" fill="#FF2929"/>
<path opacity="0.5" d="M8.97896 19.6458L8.83978 19.8869L9.08092 20.0261L9.2201 19.785L8.97896 19.6458Z" fill="#FF2929"/>
<path opacity="0.2" d="M9.33323 19.8752L9.22882 20.056L9.40965 20.1604L9.51406 19.9796L9.33323 19.8752Z" fill="#FF2929"/>
</g>
<g opacity="0.4">
<path opacity="0.4" d="M8.87777 18.5152L8.63416 18.9371L9.05609 19.1807L9.2997 18.7588L8.87777 18.5152Z" fill="#FF2929"/>
<path opacity="0.5" d="M9.35249 18.9349L9.21326 19.176L9.45434 19.3152L9.59357 19.0742L9.35249 18.9349Z" fill="#FF2929"/>
<path opacity="0.2" d="M9.76865 19.2017L9.66431 19.3825L9.84518 19.4869L9.94952 19.306L9.76865 19.2017Z" fill="#FF2929"/>
</g>
<g opacity="0.4">
<path opacity="0.4" d="M9.27872 17.9004L9.03516 18.3224L9.45714 18.566L9.7007 18.144L9.27872 17.9004Z" fill="#FF2929"/>
<path opacity="0.5" d="M9.75346 18.32L9.61426 18.5611L9.85536 18.7003L9.99457 18.4592L9.75346 18.32Z" fill="#FF2929"/>
<path opacity="0.2" d="M10.109 18.5515L10.0046 18.7323L10.1855 18.8367L10.2899 18.6559L10.109 18.5515Z" fill="#FF2929"/>
</g>
</g>
<g opacity="0.4">
<g opacity="0.4">
<path opacity="0.4" d="M5.43448 28.1479L5.34985 28.6277L5.82967 28.7123L5.9143 28.2325L5.43448 28.1479Z" fill="#FF2929"/>
<path opacity="0.5" d="M6.06358 28.3819L6.01514 28.6561L6.28929 28.7045L6.33773 28.4304L6.06358 28.3819Z" fill="#FF2929"/>
<path opacity="0.2" d="M6.46807 28.5275L6.43182 28.7331L6.63746 28.7694L6.67371 28.5638L6.46807 28.5275Z" fill="#FF2929"/>
</g>
<g opacity="0.4">
<path opacity="0.4" d="M5.55951 27.3831L5.47498 27.8629L5.95479 27.9474L6.03933 27.4676L5.55951 27.3831Z" fill="#FF2929"/>
<path opacity="0.5" d="M6.19133 27.6182L6.14294 27.8924L6.41713 27.9408L6.46552 27.6666L6.19133 27.6182Z" fill="#FF2929"/>
<path opacity="0.2" d="M6.59525 27.7648L6.55896 27.9704L6.7646 28.0067L6.80089 27.8011L6.59525 27.7648Z" fill="#FF2929"/>
</g>
<g opacity="0.4">
<path opacity="0.4" d="M5.68567 26.6188L5.60114 27.0987L6.08095 27.1832L6.16549 26.7034L5.68567 26.6188Z" fill="#FF2929"/>
<path opacity="0.5" d="M6.31652 26.854L6.26819 27.1282L6.54237 27.1766L6.5907 26.9024L6.31652 26.854Z" fill="#FF2929"/>
<path opacity="0.2" d="M6.72168 27.0005L6.68536 27.2061L6.891 27.2425L6.92731 27.0368L6.72168 27.0005Z" fill="#FF2929"/>
</g>
</g>
<g opacity="0.4">
<g opacity="0.4">
<path opacity="0.4" d="M6.11507 37.574L5.63525 37.6586L5.71979 38.1384L6.1996 38.0538L6.11507 37.574Z" fill="#FF2929"/>
<path opacity="0.5" d="M6.55214 37.594L6.27795 37.6424L6.32629 37.9166L6.60047 37.8682L6.55214 37.594Z" fill="#FF2929"/>
<path opacity="0.2" d="M6.90083 37.5388L6.69519 37.5751L6.73148 37.7807L6.93712 37.7445L6.90083 37.5388Z" fill="#FF2929"/>
</g>
<g opacity="0.4">
<path opacity="0.4" d="M5.97542 36.8098L5.49561 36.8944L5.58019 37.3742L6.06001 37.2896L5.97542 36.8098Z" fill="#FF2929"/>
<path opacity="0.5" d="M6.41053 36.8311L6.13635 36.8795L6.18474 37.1537L6.45892 37.1053L6.41053 36.8311Z" fill="#FF2929"/>
<path opacity="0.2" d="M6.76026 36.7743L6.55463 36.8106L6.59092 37.0162L6.79655 36.9799L6.76026 36.7743Z" fill="#FF2929"/>
</g>
<g opacity="0.4">
<path opacity="0.4" d="M5.83596 36.0456L5.35614 36.1302L5.44077 36.61L5.92059 36.5254L5.83596 36.0456Z" fill="#FF2929"/>
<path opacity="0.5" d="M6.26982 36.0642L5.99567 36.1126L6.04411 36.3868L6.31826 36.3383L6.26982 36.0642Z" fill="#FF2929"/>
<path opacity="0.2" d="M6.6208 36.0081L6.41516 36.0443L6.45141 36.2499L6.65705 36.2137L6.6208 36.0081Z" fill="#FF2929"/>
</g>
</g>
<g opacity="0.4">
<g opacity="0.4">
<path opacity="0.4" d="M9.40453 46.2459L8.98254 46.4895L9.22611 46.9115L9.64809 46.6679L9.40453 46.2459Z" fill="#FF2929"/>
<path opacity="0.5" d="M9.8372 46.1516L9.59607 46.2907L9.73525 46.5319L9.97638 46.3927L9.8372 46.1516Z" fill="#FF2929"/>
<path opacity="0.2" d="M10.1911 45.9506L10.0103 46.055L10.1147 46.2358L10.2955 46.1314L10.1911 45.9506Z" fill="#FF2929"/>
</g>
<g opacity="0.4">
<path opacity="0.4" d="M9.07195 45.5955L8.64996 45.839L8.89353 46.261L9.31551 46.0174L9.07195 45.5955Z" fill="#FF2929"/>
<path opacity="0.5" d="M9.46825 45.4378L9.22717 45.577L9.36641 45.8181L9.60749 45.6789L9.46825 45.4378Z" fill="#FF2929"/>
<path opacity="0.2" d="M9.86038 45.3L9.6795 45.4044L9.78385 45.5853L9.96472 45.4809L9.86038 45.3Z" fill="#FF2929"/>
</g>
<g opacity="0.4">
<path opacity="0.4" d="M8.64288 44.9185L8.22095 45.1621L8.46456 45.5841L8.88649 45.3405L8.64288 44.9185Z" fill="#FF2929"/>
<path opacity="0.5" d="M9.07872 44.8237L8.83759 44.9629L8.97676 45.204L9.2179 45.0648L9.07872 44.8237Z" fill="#FF2929"/>
<path opacity="0.2" d="M9.42776 44.6248L9.24695 44.7293L9.35137 44.9101L9.53218 44.8056L9.42776 44.6248Z" fill="#FF2929"/>
</g>
</g>
<g opacity="0.4">
<g opacity="0.4">
<path opacity="0.4" d="M15.5461 53.2577L15.2328 53.631L15.6061 53.9442L15.9193 53.571L15.5461 53.2577Z" fill="#FF2929"/>
<path opacity="0.5" d="M15.9139 53.0396L15.7349 53.2529L15.9481 53.4319L16.1271 53.2186L15.9139 53.0396Z" fill="#FF2929"/>
<path opacity="0.2" d="M16.1722 52.6965L16.038 52.8565L16.1979 52.9907L16.3321 52.8307L16.1722 52.6965Z" fill="#FF2929"/>
</g>
<g opacity="0.4">
<path opacity="0.4" d="M14.9783 52.7441L14.665 53.1173L15.0382 53.4305L15.3514 53.0573L14.9783 52.7441Z" fill="#FF2929"/>
<path opacity="0.5" d="M15.3515 52.524L15.1725 52.7373L15.3858 52.9162L15.5648 52.703L15.3515 52.524Z" fill="#FF2929"/>
<path opacity="0.2" d="M15.5649 52.2327L15.4307 52.3926L15.5907 52.5268L15.7249 52.3669L15.5649 52.2327Z" fill="#FF2929"/>
</g>
<g opacity="0.4">
<path opacity="0.4" d="M14.373 52.281L14.0599 52.6542L14.4331 52.9674L14.7463 52.5941L14.373 52.281Z" fill="#FF2929"/>
<path opacity="0.5" d="M14.734 51.9678L14.555 52.181L14.7683 52.36L14.9473 52.1468L14.734 51.9678Z" fill="#FF2929"/>
<path opacity="0.2" d="M15.0058 51.7215L14.8716 51.8815L15.0316 52.0157L15.1658 51.8557L15.0058 51.7215Z" fill="#FF2929"/>
</g>
</g>
<g opacity="0.4">
<g opacity="0.4">
<path opacity="0.4" d="M23.753 57.7721L23.5864 58.2299L24.0442 58.3966L24.2108 57.9387L23.753 57.7721Z" fill="#FF2929"/>
<path opacity="0.5" d="M23.924 57.378L23.8289 57.6396L24.0905 57.7348L24.1857 57.4732L23.924 57.378Z" fill="#FF2929"/>
<path opacity="0.2" d="M24.0973 57.0667L24.0258 57.2629L24.222 57.3344L24.2935 57.1382L24.0973 57.0667Z" fill="#FF2929"/>
</g>
<g opacity="0.4">
<path opacity="0.4" d="M23.0272 57.4794L22.8605 57.9373L23.3184 58.104L23.4851 57.6461L23.0272 57.4794Z" fill="#FF2929"/>
<path opacity="0.5" d="M23.2657 57.1064L23.1704 57.368L23.432 57.4633L23.5273 57.2017L23.2657 57.1064Z" fill="#FF2929"/>
<path opacity="0.2" d="M23.3694 56.7739L23.2979 56.9701L23.4941 57.0416L23.5656 56.8454L23.3694 56.7739Z" fill="#FF2929"/>
</g>
<g opacity="0.4">
<path opacity="0.4" d="M22.2754 57.2518L22.1088 57.7096L22.5666 57.8763L22.7333 57.4185L22.2754 57.2518Z" fill="#FF2929"/>
<path opacity="0.5" d="M22.5098 56.8813L22.4146 57.143L22.6762 57.2381L22.7714 56.9765L22.5098 56.8813Z" fill="#FF2929"/>
<path opacity="0.2" d="M22.7069 56.5047L22.6354 56.7009L22.8316 56.7724L22.9031 56.5762L22.7069 56.5047Z" fill="#FF2929"/>
</g>
</g>
<g opacity="0.4">
<g opacity="0.4">
<path opacity="0.4" d="M33.4441 59.1973H32.9569V59.6845H33.4441V59.1973Z" fill="#FF2929"/>
<path opacity="0.5" d="M33.3049 58.7797H33.0265V59.0581H33.3049V58.7797Z" fill="#FF2929"/>
<path opacity="0.2" d="M33.2353 58.3621H33.0265V58.5709H33.2353V58.3621Z" fill="#FF2929"/>
</g>
<g opacity="0.4">
<path opacity="0.4" d="M32.6784 59.1973H32.1912V59.6845H32.6784V59.1973Z" fill="#FF2929"/>
<path opacity="0.5" d="M32.5392 58.7797H32.2607V59.0581H32.5392V58.7797Z" fill="#FF2929"/>
<path opacity="0.2" d="M32.4696 58.3621H32.2607V58.5709H32.4696V58.3621Z" fill="#FF2929"/>
</g>
<g opacity="0.4">
<path opacity="0.4" d="M31.8432 59.1973H31.356V59.6845H31.8432V59.1973Z" fill="#FF2929"/>
<path opacity="0.5" d="M31.7735 58.7797H31.4951V59.0581H31.7735V58.7797Z" fill="#FF2929"/>
<path opacity="0.2" d="M31.7039 58.3621H31.4951V58.5709H31.7039V58.3621Z" fill="#FF2929"/>
</g>
</g>
<g opacity="0.4">
<g opacity="0.4">
<path opacity="0.4" d="M42.5347 57.2465L42.0769 57.4132L42.2436 57.871L42.7014 57.7043L42.5347 57.2465Z" fill="#FF2929"/>
<path opacity="0.5" d="M42.2277 56.8723L41.9661 56.9675L42.0613 57.2291L42.3229 57.1339L42.2277 56.8723Z" fill="#FF2929"/>
<path opacity="0.2" d="M42.1078 56.5176L41.9116 56.589L41.9831 56.7852L42.1793 56.7138L42.1078 56.5176Z" fill="#FF2929"/>
</g>
<g opacity="0.4">
<path opacity="0.4" d="M41.7752 57.537L41.3174 57.7036L41.484 58.1615L41.9419 57.9949L41.7752 57.537Z" fill="#FF2929"/>
<path opacity="0.5" d="M41.537 57.1414L41.2754 57.2366L41.3705 57.4982L41.6322 57.4031L41.537 57.1414Z" fill="#FF2929"/>
<path opacity="0.2" d="M41.328 56.7463L41.1318 56.8177L41.2033 57.0139L41.3995 56.9425L41.328 56.7463Z" fill="#FF2929"/>
</g>
<g opacity="0.4">
<path opacity="0.4" d="M41.0808 57.8045L40.6229 57.9711L40.7895 58.4289L41.2474 58.2623L41.0808 57.8045Z" fill="#FF2929"/>
<path opacity="0.5" d="M40.8186 57.3488L40.557 57.444L40.6522 57.7056L40.9138 57.6104L40.8186 57.3488Z" fill="#FF2929"/>
<path opacity="0.2" d="M40.6338 57.0132L40.4376 57.0847L40.5091 57.2809L40.7053 57.2094L40.6338 57.0132Z" fill="#FF2929"/>
</g>
</g>
<g opacity="0.4">
<g opacity="0.4">
<path opacity="0.4" d="M50.4122 52.2688L50.0389 52.5819L50.3521 52.9552L50.7253 52.642L50.4122 52.2688Z" fill="#FF2929"/>
<path opacity="0.5" d="M50.0026 51.9916L49.7893 52.1705L49.9682 52.3838L50.1815 52.2049L50.0026 51.9916Z" fill="#FF2929"/>
<path opacity="0.2" d="M49.7561 51.7005L49.5962 51.8347L49.7304 51.9946L49.8904 51.8604L49.7561 51.7005Z" fill="#FF2929"/>
</g>
<g opacity="0.4">
<path opacity="0.4" d="M49.7939 52.7818L49.4207 53.095L49.7339 53.4683L50.1071 53.155L49.7939 52.7818Z" fill="#FF2929"/>
<path opacity="0.5" d="M49.4787 52.5125L49.2654 52.6915L49.4443 52.9047L49.6576 52.7258L49.4787 52.5125Z" fill="#FF2929"/>
<path opacity="0.2" d="M49.1351 52.2125L48.9751 52.3467L49.1093 52.5066L49.2693 52.3724L49.1351 52.2125Z" fill="#FF2929"/>
</g>
<g opacity="0.4">
<path opacity="0.4" d="M49.2212 53.2515L48.8479 53.5647L49.161 53.9379L49.5343 53.6248L49.2212 53.2515Z" fill="#FF2929"/>
<path opacity="0.5" d="M48.8604 53.0241L48.6471 53.2031L48.8261 53.4163L49.0393 53.2373L48.8604 53.0241Z" fill="#FF2929"/>
<path opacity="0.2" d="M48.5649 52.6842L48.4049 52.8184L48.5391 52.9784L48.6991 52.8442L48.5649 52.6842Z" fill="#FF2929"/>
</g>
</g>
<g opacity="0.4">
<g opacity="0.4">
<path opacity="0.4" d="M56.1228 44.8899L55.8793 45.3119L56.3013 45.5554L56.5448 45.1334L56.1228 44.8899Z" fill="#FF2929"/>
<path opacity="0.5" d="M55.6869 44.8166L55.5477 45.0577L55.7888 45.1969L55.928 44.9558L55.6869 44.8166Z" fill="#FF2929"/>
<path opacity="0.2" d="M55.3004 44.6487L55.1959 44.8295L55.3767 44.9339L55.4812 44.7532L55.3004 44.6487Z" fill="#FF2929"/>
</g>
<g opacity="0.4">
<path opacity="0.4" d="M55.7488 45.6058L55.5051 46.0277L55.927 46.2714L56.1707 45.8495L55.7488 45.6058Z" fill="#FF2929"/>
<path opacity="0.5" d="M55.2858 45.4311L55.1466 45.6722L55.3877 45.8114L55.5269 45.5702L55.2858 45.4311Z" fill="#FF2929"/>
<path opacity="0.2" d="M54.9608 45.2946L54.8563 45.4754L55.0372 45.5798L55.1416 45.399L54.9608 45.2946Z" fill="#FF2929"/>
</g>
<g opacity="0.4">
<path opacity="0.4" d="M55.3452 46.2143L55.1016 46.6363L55.5235 46.8799L55.7671 46.4579L55.3452 46.2143Z" fill="#FF2929"/>
<path opacity="0.5" d="M54.9126 46.1379L54.7734 46.379L55.0146 46.5181L55.1537 46.277L54.9126 46.1379Z" fill="#FF2929"/>
<path opacity="0.2" d="M54.5257 45.9695L54.4213 46.1503L54.6021 46.2547L54.7065 46.0739L54.5257 45.9695Z" fill="#FF2929"/>
</g>
</g>
<g opacity="0.4">
<g opacity="0.4">
<path opacity="0.4" d="M58.9757 36.063L58.8912 36.5429L59.3711 36.6274L59.4556 36.1475L58.9757 36.063Z" fill="#FF2929"/>
<path opacity="0.5" d="M58.5079 36.0712L58.4596 36.3454L58.7338 36.3937L58.7821 36.1195L58.5079 36.0712Z" fill="#FF2929"/>
<path opacity="0.2" d="M58.0861 36.062L58.0498 36.2676L58.2554 36.304L58.2918 36.0983L58.0861 36.062Z" fill="#FF2929"/>
</g>
<g opacity="0.4">
<path opacity="0.4" d="M58.8462 36.8283L58.7616 37.3081L59.2414 37.3927L59.326 36.9129L58.8462 36.8283Z" fill="#FF2929"/>
<path opacity="0.5" d="M58.3856 36.8371L58.3373 37.1113L58.6115 37.1597L58.6598 36.8855L58.3856 36.8371Z" fill="#FF2929"/>
<path opacity="0.2" d="M57.9544 36.8277L57.9182 37.0333L58.1238 37.0696L58.1601 36.8639L57.9544 36.8277Z" fill="#FF2929"/>
</g>
<g opacity="0.4">
<path opacity="0.4" d="M58.7212 37.5918L58.6365 38.0717L59.1163 38.1563L59.201 37.6765L58.7212 37.5918Z" fill="#FF2929"/>
<path opacity="0.5" d="M58.2602 37.602L58.2119 37.8762L58.4861 37.9245L58.5344 37.6504L58.2602 37.602Z" fill="#FF2929"/>
<path opacity="0.2" d="M57.8293 37.5926L57.7931 37.7982L57.9987 37.8344L58.035 37.6288L57.8293 37.5926Z" fill="#FF2929"/>
</g>
</g>
<g opacity="0.4">
<g opacity="0.4">
<path opacity="0.4" d="M59.0825 26.6597L58.6027 26.7444L58.6873 27.2242L59.1672 27.1395L59.0825 26.6597Z" fill="#FF2929"/>
<path opacity="0.5" d="M58.4754 26.8803L58.2012 26.9286L58.2495 27.2028L58.5237 27.1545L58.4754 26.8803Z" fill="#FF2929"/>
<path opacity="0.2" d="M57.989 26.9587L57.7833 26.9949L57.8196 27.2005L58.0252 27.1643L57.989 26.9587Z" fill="#FF2929"/>
</g>
<g opacity="0.4">
<path opacity="0.4" d="M59.2222 27.4226L58.7424 27.5072L58.8271 27.9871L59.3069 27.9024L59.2222 27.4226Z" fill="#FF2929"/>
<path opacity="0.5" d="M58.6163 27.6431L58.3422 27.6914L58.3905 27.9656L58.6647 27.9173L58.6163 27.6431Z" fill="#FF2929"/>
<path opacity="0.2" d="M58.1284 27.7235L57.9227 27.7598L57.959 27.9654L58.1646 27.9292L58.1284 27.7235Z" fill="#FF2929"/>
</g>
<g opacity="0.4">
<path opacity="0.4" d="M59.3598 28.1867L58.88 28.2711L58.9645 28.751L59.4443 28.6665L59.3598 28.1867Z" fill="#FF2929"/>
<path opacity="0.5" d="M58.757 28.4076L58.4828 28.4559L58.5311 28.7301L58.8053 28.6818L58.757 28.4076Z" fill="#FF2929"/>
<path opacity="0.2" d="M58.2723 28.4927L58.0667 28.5291L58.103 28.7347L58.3086 28.6984L58.2723 28.4927Z" fill="#FF2929"/>
</g>
</g>
<g opacity="0.4">
<g opacity="0.4">
<path opacity="0.4" d="M55.5756 17.8811L55.1537 18.1247L55.3973 18.5466L55.8192 18.303L55.5756 17.8811Z" fill="#FF2929"/>
<path opacity="0.5" d="M55.0085 18.2938L54.7673 18.4329L54.9065 18.6741L55.1476 18.5349L55.0085 18.2938Z" fill="#FF2929"/>
<path opacity="0.2" d="M54.5941 18.5315L54.4133 18.6359L54.5178 18.8168L54.6986 18.7123L54.5941 18.5315Z" fill="#FF2929"/>
</g>
<g opacity="0.4">
<path opacity="0.4" d="M55.9088 18.5309L55.4868 18.7745L55.7304 19.1964L56.1524 18.9528L55.9088 18.5309Z" fill="#FF2929"/>
<path opacity="0.5" d="M55.4032 18.9149L55.1621 19.0541L55.3013 19.2952L55.5424 19.156L55.4032 18.9149Z" fill="#FF2929"/>
<path opacity="0.2" d="M55.0245 19.2058L54.8436 19.3102L54.9481 19.491L55.1289 19.3866L55.0245 19.2058Z" fill="#FF2929"/>
</g>
<g opacity="0.4">
<path opacity="0.4" d="M56.3379 19.2105L55.916 19.4541L56.1596 19.876L56.5816 19.6324L56.3379 19.2105Z" fill="#FF2929"/>
<path opacity="0.5" d="M55.7709 19.624L55.5298 19.7631L55.669 20.0043L55.9101 19.8651L55.7709 19.624Z" fill="#FF2929"/>
<path opacity="0.2" d="M55.3559 19.8576L55.175 19.9621L55.2795 20.1429L55.4603 20.0385L55.3559 19.8576Z" fill="#FF2929"/>
</g>
</g>
<g opacity="0.4">
<g opacity="0.4">
<path opacity="0.4" d="M49.1992 10.8399L48.8861 11.2132L49.2594 11.5263L49.5725 11.1531L49.1992 10.8399Z" fill="#FF2929"/>
<path opacity="0.5" d="M48.8156 11.4068L48.6366 11.62L48.8499 11.799L49.0289 11.5857L48.8156 11.4068Z" fill="#FF2929"/>
<path opacity="0.2" d="M48.5509 11.7512L48.4166 11.9111L48.5766 12.0454L48.7108 11.8854L48.5509 11.7512Z" fill="#FF2929"/>
</g>
<g opacity="0.4">
<path opacity="0.4" d="M49.7633 11.3564L49.4501 11.7296L49.8233 12.0428L50.1365 11.6696L49.7633 11.3564Z" fill="#FF2929"/>
<path opacity="0.5" d="M49.4236 11.868L49.2446 12.0813L49.4579 12.2603L49.6369 12.047L49.4236 11.868Z" fill="#FF2929"/>
<path opacity="0.2" d="M49.1152 12.2643L48.9811 12.4244L49.1411 12.5585L49.2752 12.3985L49.1152 12.2643Z" fill="#FF2929"/>
</g>
<g opacity="0.4">
<path opacity="0.4" d="M50.3712 11.8176L50.058 12.1908L50.4312 12.504L50.7444 12.1308L50.3712 11.8176Z" fill="#FF2929"/>
<path opacity="0.5" d="M49.9872 12.3821L49.8082 12.5954L50.0215 12.7744L50.2005 12.5611L49.9872 12.3821Z" fill="#FF2929"/>
<path opacity="0.2" d="M49.7226 12.728L49.5884 12.8879L49.7483 13.0221L49.8826 12.8622L49.7226 12.728Z" fill="#FF2929"/>
</g>
</g>
<g opacity="0.4">
<g opacity="0.4">
<path opacity="0.4" d="M40.7606 6.38246L40.5939 6.84031L41.0517 7.00698L41.2184 6.54914L40.7606 6.38246Z" fill="#FF2929"/>
<path opacity="0.5" d="M40.644 7.02091L40.5488 7.28254L40.8105 7.37775L40.9057 7.11613L40.644 7.02091Z" fill="#FF2929"/>
<path opacity="0.2" d="M40.4922 7.4891L40.4208 7.68531L40.617 7.75671L40.6884 7.56049L40.4922 7.4891Z" fill="#FF2929"/>
</g>
<g opacity="0.4">
<path opacity="0.4" d="M41.4887 6.67834L41.322 7.13614L41.7798 7.30287L41.9465 6.84507L41.4887 6.67834Z" fill="#FF2929"/>
<path opacity="0.5" d="M41.3731 7.31414L41.2778 7.57574L41.5394 7.67104L41.6347 7.40944L41.3731 7.31414Z" fill="#FF2929"/>
<path opacity="0.2" d="M41.2222 7.78122L41.1508 7.97742L41.347 8.04889L41.4184 7.8527L41.2222 7.78122Z" fill="#FF2929"/>
</g>
<g opacity="0.4">
<path opacity="0.4" d="M42.2412 6.90455L42.0745 7.36235L42.5323 7.52912L42.699 7.07133L42.2412 6.90455Z" fill="#FF2929"/>
<path opacity="0.5" d="M42.1016 7.60626L42.0063 7.86789L42.268 7.96313L42.3632 7.70151L42.1016 7.60626Z" fill="#FF2929"/>
<path opacity="0.2" d="M41.972 8.0099L41.9006 8.20612L42.0969 8.27751L42.1682 8.08129L41.972 8.0099Z" fill="#FF2929"/>
</g>
</g>
</g>
<defs>
<clipPath id="clip0">
<rect x="0.800049" y="0.800049" width="63.1999" height="63.1999" fill="white"/>
</clipPath>
</defs>
</svg>
