<svg width="24" height="24" fill="none" xmlns="http://www.w3.org/2000/svg"><path d="M11.368 3.425l2.773.566-.146-.492c-.305-1.025-1.459-1.65-2.487-1.344L3.842 4.44c-.51.152-.932.496-1.186.966a1.977 1.977 0 00-.16 1.521l3.43 11.5c.058.192.15.366.258.528.022-.323 2.76-13.65 2.824-13.971a2.007 2.007 0 012.36-1.56z" fill="#4B4B4B"/><path d="M21.253 7.06a1.994 1.994 0 00-1.268-.857l-7.837-1.6c-1.066-.222-2.145.5-2.36 1.558l-2.4 11.759a1.985 1.985 0 00.291 1.502c.295.447.746.75 1.267.857.326.068 7.906 1.641 8.238 1.641a2.01 2.01 0 001.96-1.6l2.4-11.757a1.98 1.98 0 00-.292-1.502zm-7.385 9.122l-1.36-3.34 2.56-2.539 1.36 3.34-2.56 2.539z" fill="#4B4B4B"/></svg>