<svg width="24" height="24" fill="none" xmlns="http://www.w3.org/2000/svg"><g clip-path="url(#clip0)"><path d="M20.707 7.293l-5-5A1.002 1.002 0 0015 2H4a1 1 0 00-1 1v18a1 1 0 001 1h16a1 1 0 001-1V8a1 1 0 00-.293-.707zM6 12h3.5a.5.5 0 000-1h-1A2.503 2.503 0 016 8.5c0-1.207.86-2.217 2-2.449v-1.05h2v1h2v2H8.5a.5.5 0 000 1h1c1.378 0 2.5 1.121 2.5 2.5a2.505 2.505 0 01-2 2.45V15H8v-1H6v-2zm12 7H7v-2h11v2zm0-3.998h-4v-2h4v2zm0-4h-4v-2h4v2z" fill="#4B4B4B"/></g><defs><clipPath id="clip0"><path fill="#fff" d="M0 0h24v24H0z"/></clipPath></defs></svg>