<svg width="24" height="24" fill="none" xmlns="http://www.w3.org/2000/svg"><g clip-path="url(#clip0)" fill="#4B4B4B"><path d="M22.707 1.295a.997.997 0 00-.871-.279l-6 1a1 1 0 00-.636.387l-8.058 10.74L8.47 14.47l9.5-9.5 1.061 1.061-9.5 9.5 1.327 1.327L21.6 8.802a.998.998 0 00.387-.636l1-6a1.003 1.003 0 00-.28-.87z"/><path d="M11.192 18.708l-5.898-5.897A1.012 1.012 0 015 12.102v-2.1H3v2.1c0 .79.32 1.562.88 2.123l1.24 1.24-3.827 3.828a.997.997 0 000 1.413l2 2a.995.995 0 001.414 0l3.828-3.828 1.243 1.243c.567.568 1.321.88 2.122.88H14v-2h-2.1a.99.99 0 01-.708-.293z"/></g><defs><clipPath id="clip0"><path fill="#fff" d="M0 0h24v24H0z"/></clipPath></defs></svg>