<svg width="18" height="20" viewBox="0 0 18 20" fill="none" xmlns="http://www.w3.org/2000/svg">
<g clip-path="url(#clip0)">
<path d="M15.0607 16.3968L10.6275 18.9676C9.35223 19.6963 7.77328 19.6963 6.49798 18.9676L2.06478 16.3968C0.789474 15.668 0 14.3117 0 12.834V7.71254C0 6.23481 0.789474 4.87854 2.06478 4.14979L6.49798 1.57894C7.77328 0.850197 9.35223 0.850197 10.6275 1.57894L15.0607 4.14979C16.336 4.87854 17.1255 6.25505 17.1255 7.71254V12.834C17.1255 14.3117 16.336 15.668 15.0607 16.3968Z" fill="url(#paint0_linear)"/>
<path d="M8.56279 18.7247C8.23891 18.7247 7.91502 18.6437 7.63162 18.4818L1.92312 15.1822C1.33607 14.838 0.991943 14.2308 0.991943 13.5627V6.9838C0.991943 6.31578 1.35632 5.68825 1.92312 5.36436L7.63162 2.06477C7.91502 1.90283 8.23891 1.82185 8.56279 1.82185C8.88668 1.82185 9.21057 1.90283 9.49397 2.06477L15.2025 5.36436C15.7895 5.70849 16.1336 6.31578 16.1336 6.9838V13.5627C16.1336 14.2308 15.7693 14.8583 15.2025 15.1822L9.49397 18.4818C9.21057 18.6437 8.88668 18.7247 8.56279 18.7247Z" fill="url(#paint1_linear)"/>
<path d="M8.5628 18.583C8.25915 18.583 7.95551 18.502 7.69235 18.3603L1.98385 15.0607C1.45753 14.7571 1.1134 14.17 1.1134 13.5627V6.98379C1.1134 6.35626 1.43729 5.78945 1.98385 5.48581L7.69235 2.18622C7.95551 2.02427 8.25915 1.96354 8.5628 1.96354C8.86644 1.96354 9.17008 2.04451 9.43324 2.18622L15.1417 5.48581C15.6681 5.78945 16.0122 6.3765 16.0122 6.98379V13.5627C16.0122 14.1903 15.6883 14.7571 15.1417 15.0607L9.43324 18.3603C9.17008 18.502 8.86644 18.583 8.5628 18.583Z" fill="url(#paint2_linear)"/>
<path d="M11.2955 15.8097C11.0526 15.8097 10.8097 15.7692 10.587 15.668L8.80563 14.8988C8.72466 14.8583 8.64369 14.8583 8.56271 14.8583C8.48174 14.8583 8.40077 14.8785 8.3198 14.8988L6.53842 15.668C6.31575 15.7692 6.07284 15.8097 5.82992 15.8097V15.668V15.8097C5.34409 15.8097 4.85826 15.6073 4.53437 15.2227C4.21049 14.8583 4.0283 14.3724 4.08903 13.8664L4.25097 11.9433C4.27122 11.7814 4.21049 11.6194 4.10927 11.498L2.81373 10.0405C2.38863 9.57488 2.26717 8.9271 2.44935 8.31982C2.65178 7.71253 3.11737 7.28743 3.7449 7.14573L5.64773 6.72063C5.80968 6.68014 5.95138 6.57893 6.03235 6.43723L7.02425 4.75706C7.34814 4.21051 7.91494 3.88662 8.54247 3.88662C9.17 3.88662 9.7368 4.21051 10.0607 4.75706L11.0526 6.43723C11.1336 6.57893 11.2753 6.68014 11.4372 6.72063L13.34 7.14573C13.9473 7.28743 14.4332 7.71253 14.6356 8.31982C14.838 8.9271 14.6963 9.55463 14.2712 10.0405L12.9757 11.498C12.8745 11.6194 12.8137 11.7814 12.834 11.9433L13.0162 13.8866C13.0566 14.3724 12.8947 14.8785 12.5708 15.2429C12.2672 15.6073 11.7813 15.8097 11.2955 15.8097Z" fill="url(#paint3_linear)"/>
<path d="M11.2956 15.6882C11.0729 15.6882 10.8502 15.6478 10.6478 15.5465L8.84617 14.7773C8.74495 14.7368 8.66398 14.7166 8.56277 14.7166C8.46155 14.7166 8.36034 14.7368 8.27937 14.7773L6.47775 15.5465C6.27532 15.6275 6.05264 15.6882 5.82997 15.6882C5.36439 15.6882 4.93928 15.4858 4.6154 15.1619C4.31175 14.8178 4.14981 14.3725 4.21054 13.9069L4.39273 11.9635C4.41297 11.7611 4.35224 11.5587 4.21054 11.417L2.91499 9.9595C2.53038 9.51415 2.40892 8.92711 2.59111 8.38055C2.77329 7.83399 3.21864 7.42913 3.78544 7.28743L5.68827 6.86233C5.8907 6.82185 6.05264 6.70039 6.15386 6.5182L7.14576 4.83804C7.44941 4.33197 7.97572 4.02832 8.54252 4.02832C9.12957 4.02832 9.65588 4.33197 9.93928 4.83804L10.9312 6.5182C11.0324 6.70039 11.2146 6.82185 11.3968 6.86233L13.2996 7.28743C13.8664 7.40889 14.3118 7.81375 14.4939 8.38055C14.6761 8.92711 14.5547 9.5344 14.1701 9.9595L12.8745 11.417C12.7328 11.5587 12.6721 11.7611 12.6923 11.9635L12.8745 13.9069C12.915 14.3725 12.7733 14.8178 12.4696 15.1619C12.1862 15.4858 11.7409 15.6882 11.2956 15.6882Z" fill="url(#paint4_linear)"/>
<path d="M7.89472 13.9069L6.11335 14.6761C5.62752 14.8785 5.1012 14.4939 5.14169 13.9676L5.32387 12.0243C5.36436 11.5587 5.22266 11.1133 4.91901 10.7692L3.62347 9.31172C3.27934 8.90686 3.48177 8.29958 3.98784 8.17812L5.89067 7.75302C6.33602 7.6518 6.72063 7.3684 6.96355 6.96355L7.95545 5.28338C8.21861 4.83804 8.88662 4.83804 9.14978 5.28338L10.1417 6.96355C10.3846 7.3684 10.7692 7.6518 11.2146 7.75302L13.1174 8.17812C13.6235 8.29958 13.8259 8.92711 13.4818 9.31172L12.1862 10.7692C11.8826 11.1133 11.7409 11.5789 11.7814 12.0243L11.9635 13.9676C12.004 14.4939 11.4777 14.8785 10.9919 14.6761L9.21051 13.9069C8.80565 13.7247 8.31982 13.7247 7.89472 13.9069Z" fill="url(#paint5_radial)"/>
<path d="M9.61545 6.05263L9.17011 5.2834C8.90695 4.83806 8.23894 4.83806 7.97578 5.2834L6.98387 6.96356C6.74096 7.36842 6.35634 7.65182 5.911 7.75304L4.00817 8.17814C3.54258 8.27935 3.34015 8.78543 3.54258 9.17004C3.44136 8.80567 3.66404 8.40081 4.06889 8.31984L5.97173 7.89474C6.41707 7.79352 6.80169 7.51012 7.0446 7.10526L8.03651 5.4251C8.29966 4.97976 8.96768 4.97976 9.23084 5.4251C9.21059 5.44535 9.59521 6.07288 9.61545 6.05263Z" fill="url(#paint6_linear)"/>
<path d="M13.1174 8.17814L11.2146 7.75304C10.7692 7.65183 10.3846 7.36842 10.1417 6.96357L9.8988 6.55871L10.2024 7.10527C10.4454 7.51012 10.83 7.79353 11.2753 7.89474L13.1782 8.31984C13.3806 8.36033 13.5425 8.50203 13.6437 8.66397C13.583 8.4413 13.4008 8.23887 13.1174 8.17814Z" fill="#FFDD00"/>
<path d="M5.20247 14.1296L5.38466 12.1862C5.4049 11.8826 5.36441 11.5992 5.24295 11.336C5.32393 11.5587 5.34417 11.8016 5.32393 12.0445L5.14174 13.9879C5.1215 14.1296 5.16198 14.2713 5.22271 14.3725C5.20247 14.2915 5.18223 14.2105 5.20247 14.1296Z" fill="#FFCC00"/>
<path d="M11.2956 14.251C11.2754 14.251 11.2349 14.251 11.2146 14.2308L9.43326 13.4615C9.14986 13.3401 8.86646 13.2794 8.56281 13.2794C8.25917 13.2794 7.97577 13.3401 7.69237 13.4615L5.91099 14.2308C5.89075 14.251 5.85026 14.251 5.83002 14.251C5.76929 14.251 5.72881 14.2308 5.68832 14.1903C5.64783 14.1498 5.62759 14.1093 5.64783 14.0486L5.83002 12.1053C5.89075 11.5182 5.68832 10.9109 5.30371 10.4656L4.00816 9.0081C3.94743 8.92713 3.94743 8.8664 3.96767 8.82592C3.98792 8.78543 4.00816 8.7247 4.10937 8.70446L6.01221 8.27936C6.59925 8.1579 7.10532 7.77329 7.40897 7.26721L8.40087 5.58705C8.44136 5.50608 8.52233 5.48584 8.56281 5.48584C8.6033 5.48584 8.68427 5.50608 8.72476 5.58705L9.71666 7.26721C10.0203 7.77329 10.5264 8.1579 11.1134 8.27936L13.0163 8.70446C13.1175 8.7247 13.1377 8.78543 13.158 8.82592C13.1782 8.8664 13.1782 8.94737 13.1175 9.0081L11.8219 10.4656C11.4171 10.9109 11.2349 11.5182 11.2956 12.1053L11.4778 14.0486C11.4778 14.1093 11.4576 14.1498 11.4373 14.1903C11.3968 14.2308 11.3361 14.251 11.2956 14.251Z" fill="url(#paint7_linear)"/>
<path d="M11.2956 12.085C11.2551 11.5789 11.3766 11.0729 11.66 10.668C11.6397 10.668 11.6195 10.6883 11.5992 10.6883C10.9312 10.9919 10.1013 11.5182 9.39277 12.0243C8.74499 12.4899 7.97576 12.7126 7.18629 12.915C6.74094 13.0364 6.21463 13.0567 5.74904 12.9757L5.64783 14.0283C5.64783 14.0891 5.66807 14.1296 5.68831 14.17C5.7288 14.2105 5.76928 14.2308 5.83001 14.2308C5.85026 14.2308 5.89074 14.2308 5.91099 14.2105L7.69236 13.4413C7.97576 13.3198 8.25916 13.2591 8.56281 13.2591C8.86645 13.2591 9.14985 13.3198 9.43325 13.4413L11.2146 14.2105C11.2349 14.2308 11.2754 14.2308 11.2956 14.2308C11.3563 14.2308 11.3968 14.2105 11.4373 14.17C11.4778 14.1296 11.498 14.0891 11.4778 14.0283L11.2956 12.085Z" fill="#FFAA00"/>
<path d="M6.07292 8.40081C6.78142 8.21862 7.24701 7.81376 7.81381 7.44939C8.31989 7.1255 8.8462 6.8421 9.39276 6.68016L8.72474 5.54656C8.68426 5.46558 8.60329 5.46558 8.5628 5.46558C8.52231 5.46558 8.44134 5.48583 8.40086 5.5668L7.40895 7.24696C7.10531 7.75303 6.59924 8.13765 6.01219 8.25911L4.33203 8.62348C4.71665 8.62348 5.56685 8.52226 6.07292 8.40081Z" fill="white"/>
<path d="M14.2713 15.9919C14.3118 16.0526 13.7855 16.417 13.0972 16.8219C12.409 17.2267 11.8219 17.4899 11.7814 17.4291C11.7409 17.3684 12.2673 17.004 12.9555 16.5992C13.6438 16.1943 14.2308 15.9312 14.2713 15.9919Z" fill="#FF8B10"/>
<path d="M4.55466 16.9231C4.51418 16.9838 4.08908 16.7814 3.56276 16.4777C3.03644 16.1741 2.65183 15.8907 2.69232 15.8502C2.7328 15.7895 3.1579 15.9919 3.68422 16.2955C4.21053 16.5992 4.59515 16.8623 4.55466 16.9231Z" fill="#FFA61F"/>
<path d="M6.51821 2.48986C6.5587 2.57083 6.15384 2.87448 5.62753 3.17812C5.10121 3.48176 4.63562 3.66395 4.59514 3.60322C4.55465 3.52225 4.95951 3.21861 5.48583 2.91496C6.01214 2.61132 6.47773 2.42913 6.51821 2.48986Z" fill="white"/>
</g>
<defs>
<linearGradient id="paint0_linear" x1="7.04733" y1="1.94805" x2="9.82903" y2="17.2746" gradientUnits="userSpaceOnUse">
<stop stop-color="#FFFFB5"/>
<stop offset="0.2007" stop-color="#FFFF53"/>
<stop offset="0.3085" stop-color="#FFF950"/>
<stop offset="0.4509" stop-color="#FFE846"/>
<stop offset="0.6127" stop-color="#FFCD36"/>
<stop offset="0.7889" stop-color="#FFA720"/>
<stop offset="0.9748" stop-color="#FF7604"/>
<stop offset="1" stop-color="#FF6F00"/>
</linearGradient>
<linearGradient id="paint1_linear" x1="6.5599" y1="1.01228" x2="10.398" y2="18.7987" gradientUnits="userSpaceOnUse">
<stop stop-color="#FF8C00"/>
<stop offset="1" stop-color="#FFFF33"/>
</linearGradient>
<linearGradient id="paint2_linear" x1="6.59367" y1="1.16879" x2="10.3669" y2="18.6546" gradientUnits="userSpaceOnUse">
<stop stop-color="#FFFF33"/>
<stop offset="1" stop-color="#FF8C00"/>
</linearGradient>
<linearGradient id="paint3_linear" x1="7.74589" y1="3.76002" x2="9.70786" y2="16.0892" gradientUnits="userSpaceOnUse">
<stop stop-color="#FF8C00"/>
<stop offset="1" stop-color="#FFCF33"/>
</linearGradient>
<linearGradient id="paint4_linear" x1="7.86269" y1="3.85604" x2="9.53483" y2="15.8954" gradientUnits="userSpaceOnUse">
<stop stop-color="#E66903"/>
<stop offset="1" stop-color="#F06800"/>
</linearGradient>
<radialGradient id="paint5_radial" cx="0" cy="0" r="1" gradientUnits="userSpaceOnUse" gradientTransform="translate(8.12537 8.60059) scale(5.60789)">
<stop stop-color="#FFFF53"/>
<stop offset="0.149" stop-color="#FFF44C"/>
<stop offset="0.4126" stop-color="#FFD638"/>
<stop offset="0.7573" stop-color="#FFA619"/>
<stop offset="1" stop-color="#FF8000"/>
</radialGradient>
<linearGradient id="paint6_linear" x1="3.44839" y1="7.07132" x2="13.6434" y2="7.07132" gradientUnits="userSpaceOnUse">
<stop stop-color="#FFE21F"/>
<stop offset="0.4649" stop-color="#FFEC1E"/>
<stop offset="1" stop-color="#FFF01D"/>
</linearGradient>
<linearGradient id="paint7_linear" x1="7.37899" y1="6.08934" x2="10.6351" y2="14.7305" gradientUnits="userSpaceOnUse">
<stop stop-color="#FFFB00"/>
<stop offset="0.1161" stop-color="#FFEE00"/>
<stop offset="0.4974" stop-color="#FFC900"/>
<stop offset="0.8055" stop-color="#FFB200"/>
<stop offset="1" stop-color="#FFAA00"/>
</linearGradient>
<clipPath id="clip0">
<rect width="17.7125" height="20" fill="white"/>
</clipPath>
</defs>
</svg>
