<svg width="19" height="20" viewBox="0 0 19 20" fill="none" xmlns="http://www.w3.org/2000/svg">
<g clip-path="url(#clip0)">
<path d="M15.5607 16.3968L11.1275 18.9676C9.85223 19.6963 8.27328 19.6963 6.99798 18.9676L2.56478 16.3968C1.28947 15.668 0.5 14.3117 0.5 12.834V7.71254C0.5 6.23481 1.28947 4.87853 2.56478 4.14979L6.99798 1.57894C8.27328 0.850193 9.85223 0.850193 11.1275 1.57894L15.5607 4.14979C16.836 4.87853 17.6255 6.25505 17.6255 7.71254V12.834C17.6255 14.3117 16.836 15.668 15.5607 16.3968Z" fill="url(#paint0_linear)"/>
<path d="M9.06278 18.7247C8.73889 18.7247 8.415 18.6437 8.1316 18.4818L2.4231 15.1822C1.83606 14.838 1.49193 14.2307 1.49193 13.5627V6.98378C1.49193 6.31577 1.8563 5.68824 2.4231 5.36435L8.1316 2.06475C8.415 1.90281 8.73889 1.82184 9.06278 1.82184C9.38666 1.82184 9.71055 1.90281 9.99395 2.06475L15.7025 5.36435C16.2895 5.70848 16.6336 6.31577 16.6336 6.98378V13.5627C16.6336 14.2307 16.2693 14.8583 15.7025 15.1822L9.99395 18.4818C9.71055 18.6437 9.38666 18.7247 9.06278 18.7247Z" fill="url(#paint1_linear)"/>
<path d="M9.06276 18.583C8.75912 18.583 8.45548 18.502 8.19232 18.3603L2.48382 15.0607C1.9575 14.7571 1.61337 14.17 1.61337 13.5627V6.98377C1.61337 6.35624 1.93726 5.78944 2.48382 5.4858L8.19232 2.1862C8.45548 2.02426 8.75912 1.96353 9.06276 1.96353C9.36641 1.96353 9.67005 2.0445 9.93321 2.1862L15.6417 5.4858C16.168 5.78944 16.5122 6.37649 16.5122 6.98377V13.5627C16.5122 14.1903 16.1883 14.7571 15.6417 15.0607L9.93321 18.3603C9.67005 18.502 9.36641 18.583 9.06276 18.583Z" fill="url(#paint2_linear)"/>
<path d="M11.7955 15.8097C11.5526 15.8097 11.3097 15.7692 11.087 15.668L9.30566 14.8988C9.22469 14.8583 9.14372 14.8583 9.06275 14.8583C8.98177 14.8583 8.9008 14.8785 8.81983 14.8988L7.03845 15.668C6.81578 15.7692 6.57287 15.8097 6.32995 15.8097V15.668V15.8097C5.84412 15.8097 5.35829 15.6073 5.0344 15.2227C4.71052 14.8583 4.52833 14.3725 4.58906 13.8664L4.751 11.9433C4.77125 11.7814 4.71052 11.6194 4.6093 11.498L3.31376 10.0405C2.88866 9.57489 2.7672 8.92711 2.94938 8.31982C3.15181 7.71254 3.6174 7.28744 4.24493 7.14574L6.14777 6.72063C6.30971 6.68015 6.45141 6.57893 6.53238 6.43723L7.52428 4.75707C7.84817 4.21051 8.41497 3.88663 9.0425 3.88663C9.67003 3.88663 10.2368 4.21051 10.5607 4.75707L11.5526 6.43723C11.6336 6.57893 11.7753 6.68015 11.9372 6.72063L13.8401 7.14574C14.4474 7.28744 14.9332 7.71254 15.1356 8.31982C15.338 8.92711 15.1963 9.55464 14.7712 10.0405L13.4757 11.498C13.3745 11.6194 13.3138 11.7814 13.334 11.9433L13.5162 13.8866C13.5567 14.3725 13.3947 14.8785 13.0708 15.2429C12.7672 15.6073 12.2814 15.8097 11.7955 15.8097Z" fill="url(#paint3_linear)"/>
<path d="M11.7955 15.6882C11.5729 15.6882 11.3502 15.6478 11.1478 15.5465L9.34615 14.7773C9.24494 14.7368 9.16397 14.7166 9.06275 14.7166C8.96154 14.7166 8.86032 14.7368 8.77935 14.7773L6.97773 15.5465C6.7753 15.6275 6.55263 15.6882 6.32996 15.6882C5.86437 15.6882 5.43927 15.4858 5.11538 15.1619C4.81174 14.8178 4.6498 14.3724 4.71052 13.9069L4.89271 11.9635C4.91295 11.7611 4.85222 11.5587 4.71052 11.417L3.41498 9.95949C3.03036 9.51415 2.90891 8.92711 3.09109 8.38055C3.27328 7.83399 3.71862 7.42913 4.28542 7.28743L6.18826 6.86233C6.39069 6.82184 6.55263 6.70039 6.65384 6.5182L7.64575 4.83804C7.94939 4.33196 8.47571 4.02832 9.04251 4.02832C9.62955 4.02832 10.1559 4.33196 10.4393 4.83804L11.4312 6.5182C11.5324 6.70039 11.7146 6.82184 11.8968 6.86233L13.7996 7.28743C14.3664 7.40889 14.8117 7.81375 14.9939 8.38055C15.1761 8.92711 15.0547 9.53439 14.67 9.95949L13.3745 11.417C13.2328 11.5587 13.1721 11.7611 13.1923 11.9635L13.3745 13.9069C13.415 14.3724 13.2733 14.8178 12.9696 15.1619C12.6862 15.4858 12.2409 15.6882 11.7955 15.6882Z" fill="url(#paint4_linear)"/>
<path d="M8.39475 13.9069L6.61338 14.6761C6.12755 14.8785 5.60123 14.4939 5.64172 13.9676L5.8239 12.0243C5.86439 11.5587 5.72269 11.1133 5.41904 10.7692L4.1235 9.31172C3.77937 8.90686 3.9818 8.29957 4.48787 8.17812L6.3907 7.75301C6.83605 7.6518 7.22066 7.3684 7.46358 6.96354L8.45548 5.28338C8.71864 4.83804 9.38666 4.83804 9.64981 5.28338L10.6417 6.96354C10.8846 7.3684 11.2692 7.6518 11.7146 7.75301L13.6174 8.17812C14.1235 8.29957 14.3259 8.9271 13.9818 9.31172L12.6863 10.7692C12.3826 11.1133 12.2409 11.5789 12.2814 12.0243L12.4636 13.9676C12.5041 14.4939 11.9777 14.8785 11.4919 14.6761L9.71054 13.9069C9.30568 13.7247 8.81985 13.7247 8.39475 13.9069Z" fill="url(#paint5_radial)"/>
<path d="M10.1155 6.05264L9.67012 5.28341C9.40697 4.83807 8.73895 4.83807 8.47579 5.28341L7.48389 6.96357C7.24097 7.36843 6.85636 7.65183 6.41102 7.75304L4.50818 8.17815C4.04259 8.27936 3.84017 8.78543 4.04259 9.17005C3.94138 8.80568 4.16405 8.40082 4.56891 8.31985L6.47174 7.89475C6.91709 7.79353 7.3017 7.51013 7.54462 7.10527L8.53652 5.42511C8.79968 4.97977 9.46769 4.97977 9.73085 5.42511C9.71061 5.44535 10.0952 6.07288 10.1155 6.05264Z" fill="url(#paint6_linear)"/>
<path d="M13.6175 8.17815L11.7146 7.75305C11.2693 7.65183 10.8847 7.36843 10.6418 6.96357L10.3988 6.55872L10.7025 7.10527C10.9454 7.51013 11.33 7.79353 11.7754 7.89475L13.6782 8.31985C13.8806 8.36033 14.0426 8.50204 14.1438 8.66398C14.0831 8.44131 13.9009 8.23888 13.6175 8.17815Z" fill="#FFDD00"/>
<path d="M5.70252 14.1296L5.8847 12.1862C5.90494 11.8826 5.86446 11.5992 5.743 11.336C5.82397 11.5587 5.84422 11.8016 5.82397 12.0445L5.64179 13.9879C5.62154 14.1296 5.66203 14.2713 5.72276 14.3725C5.70251 14.2915 5.68227 14.2105 5.70252 14.1296Z" fill="#FFCC00"/>
<path d="M11.7956 14.251C11.7754 14.251 11.7349 14.251 11.7147 14.2308L9.93329 13.4615C9.64989 13.3401 9.36649 13.2794 9.06284 13.2794C8.7592 13.2794 8.4758 13.3401 8.1924 13.4615L6.41102 14.2308C6.39078 14.251 6.35029 14.251 6.33005 14.251C6.26932 14.251 6.22884 14.2308 6.18835 14.1903C6.14787 14.1498 6.12762 14.1093 6.14787 14.0486L6.33005 12.1053C6.39078 11.5182 6.18835 10.9109 5.80374 10.4656L4.50819 9.00811C4.44746 8.92714 4.44746 8.86641 4.4677 8.82592C4.48795 8.78543 4.50819 8.72471 4.6094 8.70446L6.51224 8.27936C7.09928 8.1579 7.60535 7.77329 7.909 7.26722L8.9009 5.58705C8.94139 5.50608 9.02236 5.48584 9.06284 5.48584C9.10333 5.48584 9.1843 5.50608 9.22479 5.58705L10.2167 7.26722C10.5203 7.77329 11.0264 8.1579 11.6135 8.27936L13.5163 8.70446C13.6175 8.72471 13.6377 8.78543 13.658 8.82592C13.6782 8.86641 13.6782 8.94738 13.6175 9.00811L12.322 10.4656C11.9171 10.9109 11.7349 11.5182 11.7956 12.1053L11.9778 14.0486C11.9778 14.1093 11.9576 14.1498 11.9373 14.1903C11.8969 14.2308 11.8361 14.251 11.7956 14.251Z" fill="url(#paint7_linear)"/>
<path d="M11.7956 12.085C11.7552 11.5789 11.8766 11.0729 12.16 10.668C12.1398 10.668 12.1195 10.6882 12.0993 10.6882C11.4313 10.9919 10.6013 11.5182 9.89281 12.0243C9.24504 12.4899 8.47581 12.7125 7.68633 12.915C7.24099 13.0364 6.71467 13.0567 6.24909 12.9757L6.14787 14.0283C6.14787 14.0891 6.16812 14.1295 6.18836 14.17C6.22884 14.2105 6.26933 14.2308 6.33006 14.2308C6.3503 14.2308 6.39079 14.2308 6.41103 14.2105L8.19241 13.4413C8.47581 13.3198 8.75921 13.2591 9.06285 13.2591C9.3665 13.2591 9.6499 13.3198 9.9333 13.4413L11.7147 14.2105C11.7349 14.2308 11.7754 14.2308 11.7956 14.2308C11.8564 14.2308 11.8969 14.2105 11.9373 14.17C11.9778 14.1295 11.9981 14.0891 11.9778 14.0283L11.7956 12.085Z" fill="#FFAA00"/>
<path d="M6.57294 8.4008C7.28144 8.21861 7.74703 7.81375 8.31383 7.44938C8.8199 7.12549 9.34622 6.84209 9.89278 6.68015L9.22476 5.54655C9.18427 5.46558 9.1033 5.46558 9.06282 5.46558C9.02233 5.46558 8.94136 5.48582 8.90087 5.56679L7.90897 7.24695C7.60533 7.75303 7.09925 8.13764 6.51221 8.2591L4.83205 8.62347C5.21666 8.62347 6.06686 8.52226 6.57294 8.4008Z" fill="white"/>
<path d="M14.7713 15.9919C14.8118 16.0526 14.2854 16.417 13.5972 16.8218C12.9089 17.2267 12.3219 17.4899 12.2814 17.4291C12.2409 17.3684 12.7672 17.004 13.4555 16.5992C14.1437 16.1943 14.7308 15.9312 14.7713 15.9919Z" fill="#FF8B10"/>
<path d="M5.05465 16.9231C5.01416 16.9838 4.58906 16.7814 4.06275 16.4777C3.53643 16.1741 3.15181 15.8907 3.1923 15.8502C3.23279 15.7895 3.65789 15.9919 4.1842 16.2955C4.71052 16.5992 5.09513 16.8623 5.05465 16.9231Z" fill="#FFA61F"/>
<path d="M7.01818 2.48985C7.05867 2.57082 6.65381 2.87446 6.1275 3.17811C5.60118 3.48175 5.13559 3.66393 5.09511 3.60321C5.05462 3.52223 5.45948 3.21859 5.9858 2.91495C6.51211 2.6113 6.9777 2.42912 7.01818 2.48985Z" fill="white"/>
</g>
<defs>
<linearGradient id="paint0_linear" x1="7.54733" y1="1.94805" x2="10.329" y2="17.2746" gradientUnits="userSpaceOnUse">
<stop stop-color="#FFFFB5"/>
<stop offset="0.2007" stop-color="#FFFF53"/>
<stop offset="0.3085" stop-color="#FFF950"/>
<stop offset="0.4509" stop-color="#FFE846"/>
<stop offset="0.6127" stop-color="#FFCD36"/>
<stop offset="0.7889" stop-color="#FFA720"/>
<stop offset="0.9748" stop-color="#FF7604"/>
<stop offset="1" stop-color="#FF6F00"/>
</linearGradient>
<linearGradient id="paint1_linear" x1="7.05988" y1="1.01226" x2="10.898" y2="18.7987" gradientUnits="userSpaceOnUse">
<stop stop-color="#FF8C00"/>
<stop offset="1" stop-color="#FFFF33"/>
</linearGradient>
<linearGradient id="paint2_linear" x1="7.09364" y1="1.16877" x2="10.8669" y2="18.6546" gradientUnits="userSpaceOnUse">
<stop stop-color="#FFFF33"/>
<stop offset="1" stop-color="#FF8C00"/>
</linearGradient>
<linearGradient id="paint3_linear" x1="8.24592" y1="3.76003" x2="10.2079" y2="16.0892" gradientUnits="userSpaceOnUse">
<stop stop-color="#FF8C00"/>
<stop offset="1" stop-color="#FFCF33"/>
</linearGradient>
<linearGradient id="paint4_linear" x1="8.36267" y1="3.85603" x2="10.0348" y2="15.8954" gradientUnits="userSpaceOnUse">
<stop stop-color="#E66903"/>
<stop offset="1" stop-color="#F06800"/>
</linearGradient>
<radialGradient id="paint5_radial" cx="0" cy="0" r="1" gradientUnits="userSpaceOnUse" gradientTransform="translate(8.6254 8.60059) scale(5.60789)">
<stop stop-color="#FFFF53"/>
<stop offset="0.149" stop-color="#FFF44C"/>
<stop offset="0.4126" stop-color="#FFD638"/>
<stop offset="0.7573" stop-color="#FFA619"/>
<stop offset="1" stop-color="#FF8000"/>
</radialGradient>
<linearGradient id="paint6_linear" x1="3.9484" y1="7.07132" x2="14.1434" y2="7.07132" gradientUnits="userSpaceOnUse">
<stop stop-color="#FFE21F"/>
<stop offset="0.4649" stop-color="#FFEC1E"/>
<stop offset="1" stop-color="#FFF01D"/>
</linearGradient>
<linearGradient id="paint7_linear" x1="7.87902" y1="6.08934" x2="11.1351" y2="14.7305" gradientUnits="userSpaceOnUse">
<stop stop-color="#FFFB00"/>
<stop offset="0.1161" stop-color="#FFEE00"/>
<stop offset="0.4974" stop-color="#FFC900"/>
<stop offset="0.8055" stop-color="#FFB200"/>
<stop offset="1" stop-color="#FFAA00"/>
</linearGradient>
<clipPath id="clip0">
<rect width="17.7125" height="20" fill="white" transform="translate(0.5)"/>
</clipPath>
</defs>
</svg>
