<svg width="18" height="18" viewBox="0 0 18 18" fill="none" xmlns="http://www.w3.org/2000/svg">
<g clip-path="url(#clip0)">
<path d="M16.197 6.14775C16.0778 6.05941 15.9351 6.00842 15.7869 6.00121C15.6387 5.994 15.4917 6.0309 15.3645 6.10725L12.2273 7.98975L9.62401 4.0845C9.5955 4.04175 9.54825 4.02225 9.51301 3.9885L10.2353 3.2655C10.3052 3.19498 10.3444 3.09969 10.3444 3.00038C10.3444 2.90106 10.3052 2.80577 10.2353 2.73525L9.26551 1.7655C9.19499 1.69556 9.0997 1.65632 9.00038 1.65632C8.90106 1.65632 8.80577 1.69556 8.73526 1.7655L7.76551 2.73525C7.69557 2.80577 7.65633 2.90106 7.65633 3.00038C7.65633 3.09969 7.69557 3.19498 7.76551 3.2655L8.48776 3.9885C8.45176 4.02225 8.40525 4.04175 8.37675 4.0845L5.77351 7.98975L2.63626 6.10725C2.50877 6.03132 2.36173 5.99466 2.21352 6.00186C2.06532 6.00907 1.92252 6.05981 1.80301 6.14775C1.68418 6.23637 1.59412 6.35806 1.5441 6.49759C1.49407 6.63713 1.4863 6.78832 1.52176 6.93225L3.02176 12.9323C3.10576 13.266 3.40576 13.5007 3.75001 13.5007H14.25C14.5943 13.5007 14.8943 13.2667 14.9783 12.9323L16.4783 6.93225C16.5137 6.78832 16.5059 6.63713 16.4559 6.49759C16.4059 6.35806 16.3158 6.23637 16.197 6.14775Z" fill="#87888A"/>
<path d="M3 14.2507H15V15.7507H3V14.2507Z" fill="#87888A"/>
</g>
<defs>
<clipPath id="clip0">
<rect width="18" height="18" fill="white"/>
</clipPath>
</defs>
</svg>
