<svg width="19" height="18" viewBox="0 0 19 18" fill="none" xmlns="http://www.w3.org/2000/svg">
<path d="M15.485 3.87704C14.052 2.72392 11.7852 2.52845 11.6881 2.52142C11.5377 2.50876 11.3942 2.59314 11.3323 2.73236C11.3267 2.74079 11.2775 2.8547 11.2227 3.03189C12.1705 3.1922 13.3348 3.51423 14.3881 4.16814C14.5569 4.2722 14.6089 4.49439 14.5048 4.66314C14.4359 4.77423 14.3192 4.8347 14.1983 4.8347C14.1336 4.8347 14.0675 4.81642 14.0084 4.77986C12.1972 3.65626 9.93594 3.60001 9.5 3.60001C9.06406 3.60001 6.80141 3.65626 4.99156 4.77986C4.82281 4.88533 4.60063 4.83329 4.49656 4.66454C4.3911 4.49439 4.44313 4.27361 4.61188 4.16814C5.66516 3.51564 6.82953 3.1922 7.77734 3.03329C7.7225 2.8547 7.67328 2.7422 7.66906 2.73236C7.60578 2.59314 7.46375 2.50595 7.31188 2.52142C7.21484 2.52845 4.94797 2.72392 3.49531 3.89251C2.73735 4.59423 1.22 8.69486 1.22 12.24C1.22 12.3033 1.23688 12.3638 1.26781 12.4186C2.31406 14.258 5.17016 14.7389 5.82125 14.76C5.82406 14.76 5.82828 14.76 5.8325 14.76C5.94781 14.76 6.05609 14.7052 6.12359 14.6124L6.78172 13.7067C5.00563 13.2483 4.0986 12.4692 4.04656 12.4228C3.8975 12.292 3.88344 12.0642 4.01563 11.9152C4.14641 11.7661 4.37422 11.752 4.52328 11.8828C4.54438 11.9025 6.215 13.32 9.5 13.32C12.7906 13.32 14.4613 11.8969 14.4781 11.8828C14.6272 11.7535 14.8536 11.7661 14.9858 11.9166C15.1166 12.0656 15.1025 12.292 14.9534 12.4228C14.9014 12.4692 13.9944 13.2483 12.2183 13.7067L12.8764 14.6124C12.9439 14.7052 13.0522 14.76 13.1675 14.76C13.1717 14.76 13.1759 14.76 13.1788 14.76C13.8298 14.7389 16.6859 14.258 17.7322 12.4186C17.7631 12.3638 17.78 12.3033 17.78 12.24C17.78 8.69486 16.2627 4.59423 15.485 3.87704ZM7.16 10.8C6.46391 10.8 5.9 10.156 5.9 9.36001C5.9 8.56408 6.46391 7.92001 7.16 7.92001C7.85609 7.92001 8.42 8.56408 8.42 9.36001C8.42 10.156 7.85609 10.8 7.16 10.8ZM11.84 10.8C11.1439 10.8 10.58 10.156 10.58 9.36001C10.58 8.56408 11.1439 7.92001 11.84 7.92001C12.5361 7.92001 13.1 8.56408 13.1 9.36001C13.1 10.156 12.5361 10.8 11.84 10.8Z" fill="white"/>
</svg>
