<svg width="18" height="18" viewBox="0 0 18 18" fill="none" xmlns="http://www.w3.org/2000/svg">
<g clip-path="url(#clip0)">
<path d="M9 1.5C4.8645 1.5 1.5 4.86525 1.5 9C1.5 13.1362 4.8645 16.5 9 16.5C13.1355 16.5 16.5 13.1362 16.5 9C16.5 4.86525 13.1355 1.5 9 1.5ZM9 13.6875C8.75136 13.6875 8.5129 13.5887 8.33709 13.4129C8.16127 13.2371 8.0625 12.9986 8.0625 12.75C8.0625 12.5014 8.16127 12.2629 8.33709 12.0871C8.5129 11.9113 8.75136 11.8125 9 11.8125C9.24864 11.8125 9.4871 11.9113 9.66291 12.0871C9.83873 12.2629 9.9375 12.5014 9.9375 12.75C9.9375 12.9986 9.83873 13.2371 9.66291 13.4129C9.4871 13.5887 9.24864 13.6875 9 13.6875ZM9.75 10.4062V11.25H8.25V9H9C9.29667 9 9.58668 8.91203 9.83335 8.7472C10.08 8.58238 10.2723 8.34811 10.3858 8.07403C10.4994 7.79994 10.5291 7.49834 10.4712 7.20736C10.4133 6.91639 10.2704 6.64912 10.0607 6.43934C9.85088 6.22956 9.58361 6.0867 9.29264 6.02882C9.00166 5.97094 8.70006 6.00065 8.42597 6.11418C8.15189 6.22771 7.91762 6.41997 7.7528 6.66665C7.58797 6.91332 7.5 7.20333 7.5 7.5H6C6 5.84625 7.34625 4.5 9 4.5C10.6537 4.5 12 5.84625 12 7.5C11.9991 8.16502 11.7777 8.81097 11.3706 9.33682C10.9635 9.86267 10.3936 10.2388 9.75 10.4062Z" fill="#87888A"/>
</g>
<defs>
<clipPath id="clip0">
<rect width="18" height="18" fill="white"/>
</clipPath>
</defs>
</svg>
