<svg width="19" height="17" viewBox="0 0 19 17" fill="none" xmlns="http://www.w3.org/2000/svg">
<g clip-path="url(#clip0)">
<path d="M16.9017 5.38623C16.9017 6.07472 16.6722 6.63207 16.1805 7.12384C15.6887 7.61562 15.1313 7.84512 14.4428 7.84512C13.7544 7.84512 13.197 7.61562 12.7052 7.12384C12.2135 6.63207 11.984 6.07472 11.984 5.38623C11.984 4.69774 12.2135 4.14039 12.7052 3.64861C13.197 3.15684 13.7544 2.92734 14.4428 2.92734C15.1313 2.92734 15.6887 3.15684 16.1805 3.64861C16.6395 4.14039 16.9017 4.73053 16.9017 5.38623ZM9.13165 12.8613C9.13165 12.1728 8.90215 11.5826 8.41038 11.0908C7.9186 10.5991 7.32846 10.3696 6.63998 10.3696C6.44326 10.3696 6.27934 10.4024 6.08263 10.4351L7.13175 10.8614C7.65632 11.0581 8.01695 11.4187 8.24645 11.9433C8.47595 12.435 8.47595 12.9596 8.24645 13.4514C8.04974 13.9759 7.6891 14.3366 7.16454 14.5333C6.63998 14.7628 6.1482 14.7628 5.62364 14.5333C5.49249 14.4677 5.263 14.4022 5.00072 14.271C4.73844 14.1727 4.50894 14.0743 4.3778 14.0087C4.60729 14.4022 4.90236 14.73 5.29578 14.9923C5.68921 15.2546 6.11541 15.3529 6.60719 15.3529C7.29568 15.3529 7.88581 15.1234 8.37759 14.6316C8.90215 14.1399 9.13165 13.5497 9.13165 12.8613ZM17.4919 5.41901C17.4919 4.5666 17.1968 3.84533 16.6067 3.25519C16.0165 2.66506 15.2953 2.36999 14.4428 2.36999C13.5904 2.36999 12.8692 2.66506 12.279 3.25519C11.6889 3.84533 11.3938 4.5666 11.3938 5.41901C11.3938 6.27143 11.6889 6.9927 12.279 7.58284C12.8692 8.17297 13.5904 8.46804 14.4428 8.46804C15.2953 8.46804 16.0165 8.17297 16.6067 7.58284C17.1968 6.9927 17.4919 6.27143 17.4919 5.41901ZM19 5.41901C19 6.69764 18.541 7.77955 17.6558 8.66475C16.7706 9.54995 15.6887 10.0089 14.4101 10.0089L10.0168 13.2219C9.95128 14.0743 9.55786 14.8284 8.93494 15.4185C8.27923 16.0086 7.52518 16.3037 6.63998 16.3037C5.82035 16.3037 5.09907 16.0414 4.47615 15.5496C3.85324 15.0251 3.45981 14.4022 3.29589 13.6153L0.96814 12.6645V8.3369L4.86958 9.91058C5.39414 9.58273 5.98427 9.41881 6.60719 9.41881C6.70555 9.41881 6.8039 9.41881 6.96783 9.45159L9.82014 5.35344C9.82014 4.10761 10.2791 3.0257 11.1971 2.1405C12.0823 1.28808 13.1642 0.829089 14.4101 0.829089C15.6559 0.829089 16.7378 1.28808 17.6558 2.17328C18.541 3.05848 19 4.14039 19 5.41901Z" fill="white"/>
</g>
<defs>
<clipPath id="clip0">
<rect width="18.0318" height="15.4418" fill="white" transform="translate(0.96814 0.829089)"/>
</clipPath>
</defs>
</svg>
