<svg width="20" height="20" viewBox="0 0 20 20" fill="none" xmlns="http://www.w3.org/2000/svg">
<g clip-path="url(#clip0)">
<path d="M19.8221 14.4831C19.7684 14.3933 19.4365 13.6721 17.8394 12.1898C16.1675 10.6376 16.3921 10.8897 18.4059 8.20582C19.6324 6.57131 20.1228 5.57314 19.9693 5.14642C19.8233 4.73966 18.9212 4.84697 18.9212 4.84697L15.9217 4.86444C15.9217 4.86444 15.6996 4.83449 15.5337 4.93306C15.3727 5.03038 15.2691 5.25497 15.2691 5.25497C15.2691 5.25497 14.7938 6.52016 14.1599 7.59569C12.8236 9.86529 12.2883 9.98507 12.07 9.84408C11.5622 9.51593 11.6894 8.52399 11.6894 7.82028C11.6894 5.62055 12.0226 4.70348 11.0394 4.46641C10.7125 4.38781 10.4729 4.3354 9.63819 4.32667C8.56764 4.31544 7.66055 4.33041 7.14774 4.5812C6.80587 4.7484 6.5426 5.12147 6.70355 5.14268C6.90194 5.16888 7.35112 5.26371 7.58943 5.58811C7.89762 6.0061 7.88639 6.94688 7.88639 6.94688C7.88639 6.94688 8.06357 9.53589 7.47339 9.8578C7.06789 10.0786 6.51265 9.62822 5.32108 7.56824C4.71095 6.51392 4.24929 5.3473 4.24929 5.3473C4.24929 5.3473 4.1607 5.1302 4.00224 5.01416C3.81009 4.87317 3.54059 4.82825 3.54059 4.82825L0.688304 4.84572C0.688304 4.84572 0.260336 4.8582 0.103124 5.04411C-0.0366207 5.21005 0.0918943 5.55193 0.0918943 5.55193C0.0918943 5.55193 2.32531 10.7761 4.85319 13.4101C7.17269 15.8244 9.80538 15.6659 9.80538 15.6659H10.9982C10.9982 15.6659 11.3588 15.626 11.5422 15.4276C11.7119 15.2455 11.7057 14.9036 11.7057 14.9036C11.7057 14.9036 11.6819 13.3028 12.4256 13.0669C13.158 12.8349 14.0988 14.6141 15.0957 15.2991C15.8493 15.8169 16.422 15.7034 16.422 15.7034L19.0884 15.6659C19.0884 15.6659 20.4834 15.5798 19.8221 14.4831Z" fill="white"/>
</g>
<defs>
<clipPath id="clip0">
<rect width="19.962" height="19.962" fill="white" transform="translate(0.0379944 0.0379944)"/>
</clipPath>
</defs>
</svg>
