<svg width="18" height="18" fill="none" xmlns="http://www.w3.org/2000/svg"><path d="M8.537 2.31a.751.751 0 00-.817.162L4.5 6.002H2.25a.753.753 0 00-.75.75v4.5c0 .412.337.75.75.75H4.5l3.22 3.53a.75.75 0 001.28-.53v-12a.749.749 0 00-.463-.693zM10.5 3.752v1.5a3.755 3.755 0 013.75 3.75 3.754 3.754 0 01-3.75 3.75v1.5a5.255 5.255 0 005.25-5.25 5.256 5.256 0 00-5.25-5.25z" fill="#fff"/><path d="M12.75 9.002c0-1.24-1.01-2.25-2.25-2.25v1.5a.75.75 0 010 1.5v1.5c1.24 0 2.25-1.01 2.25-2.25z" fill="#fff"/></svg>