<svg width="24" height="24" viewBox="0 0 24 24" fill="none" xmlns="http://www.w3.org/2000/svg">
<path d="M11.3681 3.42471L14.1408 3.99066L13.9948 3.4987C13.6899 2.47379 12.536 1.84884 11.508 2.15481L3.84167 4.44063C3.33171 4.59261 2.90975 4.93659 2.65577 5.40655C2.52946 5.63693 2.45035 5.89017 2.42305 6.15148C2.39576 6.41279 2.42082 6.67691 2.49678 6.92842L5.9255 18.4275C5.9835 18.6205 6.07549 18.7945 6.18448 18.9564C6.20648 18.6325 8.94425 5.30556 9.00825 4.98458C9.11593 4.46567 9.42449 4.01042 9.86659 3.71818C10.3087 3.42594 10.8485 3.32044 11.3681 3.42471Z" fill="#4B4B4B"/>
<path d="M21.2533 7.0604C21.1088 6.8411 20.9224 6.65251 20.7048 6.50545C20.4872 6.35839 20.2427 6.25577 19.9854 6.20347L12.148 4.6036C11.0821 4.38062 10.0032 5.10356 9.7872 6.16148L7.3894 17.9195C7.33614 18.1767 7.33443 18.4418 7.38438 18.6996C7.43433 18.9574 7.53493 19.2028 7.68038 19.4214C7.97535 19.8684 8.42631 20.1713 8.94727 20.2783C9.27325 20.3463 16.8526 21.9192 17.1846 21.9192C17.6453 21.9177 18.0915 21.7579 18.4484 21.4666C18.8054 21.1754 19.0515 20.7703 19.1454 20.3193L21.5442 8.56228C21.5977 8.30515 21.5995 8.03996 21.5495 7.78213C21.4996 7.52431 21.3989 7.27898 21.2533 7.0604ZM13.8679 16.1817L12.508 12.8419L15.0688 10.3031L16.4277 13.6429L13.8679 16.1817Z" fill="#4B4B4B"/>
</svg>
