<svg width="24" height="24" viewBox="0 0 24 24" fill="none" xmlns="http://www.w3.org/2000/svg">
<g clip-path="url(#clip0)">
<path d="M20.7071 7.29319L15.7071 2.29322C15.5195 2.10585 15.2652 2.00049 15.0001 2.00022H4.00015C3.73493 2.00022 3.48058 2.10557 3.29304 2.29311C3.10551 2.48064 3.00015 2.735 3.00015 3.00021V21.0001C3.00015 21.2653 3.10551 21.5197 3.29304 21.7072C3.48058 21.8948 3.73493 22.0001 4.00015 22.0001H20.0001C20.2653 22.0001 20.5196 21.8948 20.7072 21.7072C20.8947 21.5197 21.0001 21.2653 21.0001 21.0001V8.00019C21 7.73499 20.8946 7.48068 20.7071 7.29319ZM6.00014 12.0002H9.50012C9.63273 12.0002 9.7599 11.9475 9.85367 11.8537C9.94744 11.76 10.0001 11.6328 10.0001 11.5002C10.0001 11.3676 9.94744 11.2404 9.85367 11.1466C9.7599 11.0529 9.63273 11.0002 9.50012 11.0002H8.50012C7.83733 10.9994 7.20191 10.7357 6.73324 10.2671C6.26458 9.7984 6.00093 9.16298 6.00014 8.50019C6.00014 7.29319 6.85913 6.2832 8.00013 6.0512V5.0002H10.0001V6.0002H12.0001V8.00019H8.50012C8.36752 8.00019 8.24034 8.05287 8.14657 8.14663C8.05281 8.2404 8.00013 8.36758 8.00013 8.50019C8.00013 8.63279 8.05281 8.75997 8.14657 8.85374C8.24034 8.9475 8.36752 9.00018 8.50012 9.00018H9.50012C10.8781 9.00018 12.0001 10.1222 12.0001 11.5002C11.9993 12.0762 11.7999 12.6344 11.4356 13.0807C11.0713 13.527 10.5644 13.834 10.0001 13.9502V15.0002H8.00013V14.0002H6.00014V12.0002ZM18.0001 19.0001H7.00013V17.0001H18.0001V19.0001ZM18.0001 15.0022H14.0001V13.0022H18.0001V15.0022ZM18.0001 11.0022H14.0001V9.00218H18.0001V11.0022Z" fill="#4B4B4B"/>
</g>
<defs>
<clipPath id="clip0">
<rect width="23.9999" height="23.9999" fill="white" transform="translate(0.00012207 0.000225067)"/>
</clipPath>
</defs>
</svg>
