<svg width="24" height="24" viewBox="0 0 24 24" fill="none" xmlns="http://www.w3.org/2000/svg">
<g clip-path="url(#clip0)">
<path d="M22.707 1.29521C22.5946 1.18258 22.4569 1.09848 22.3054 1.04994C22.1539 1.00141 21.9929 0.989841 21.836 1.01621L15.836 2.01621C15.5821 2.05854 15.3543 2.19716 15.2 2.4032L7.14208 13.1431L8.47007 14.4701L17.97 4.97019L19.031 6.03119L9.53107 15.5311L10.8581 16.8581L21.6 8.80217C21.8062 8.64803 21.9449 8.42016 21.987 8.16618L22.987 2.16621C23.0127 2.00922 23.0007 1.84839 22.952 1.69696C22.9033 1.54553 22.8193 1.40783 22.707 1.29521Z" fill="#4B4B4B"/>
<path d="M11.1921 18.7081L5.2941 12.8111C5.1068 12.6226 5.0012 12.3679 5.0001 12.1021V10.0022H3.00011V12.1021C3.00011 12.8911 3.32011 13.6641 3.87911 14.2251L5.1201 15.4651L1.29312 19.2931C1.2002 19.3858 1.12649 19.4959 1.07619 19.6172C1.02589 19.7384 1 19.8684 1 19.9996C1 20.1309 1.02589 20.2608 1.07619 20.3821C1.12649 20.5033 1.2002 20.6134 1.29312 20.7061L3.29311 22.7061C3.38556 22.7996 3.49565 22.8739 3.61701 22.9246C3.73837 22.9753 3.86858 23.0014 4.0001 23.0014C4.13163 23.0014 4.26184 22.9753 4.3832 22.9246C4.50456 22.8739 4.61465 22.7996 4.7071 22.7061L8.53508 18.8781L9.77808 20.1211C10.3451 20.6891 11.0991 21.0011 11.9001 21.0011H14.0001V19.0011H11.9001C11.7685 19.0018 11.6381 18.9763 11.5165 18.926C11.395 18.8757 11.2847 18.8016 11.1921 18.7081Z" fill="#4B4B4B"/>
</g>
<defs>
<clipPath id="clip0">
<rect width="23.9999" height="23.9999" fill="white" transform="translate(0.000118256 0.000225067)"/>
</clipPath>
</defs>
</svg>
