<svg width="18" height="18" viewBox="0 0 18 18" fill="none" xmlns="http://www.w3.org/2000/svg">
<path d="M15.201 2.4525L2.45099 15.2025L3.51149 16.263L7.23674 12.5377L9.95099 15.513C10.0557 15.6182 10.1894 15.6897 10.335 15.7186C10.4807 15.7475 10.6315 15.7323 10.7685 15.675C10.9055 15.6184 11.0226 15.5224 11.105 15.3992C11.1874 15.2759 11.2313 15.131 11.2312 14.9827V8.54325L16.2615 3.513L15.201 2.4525Z" fill="#4B4C4E"/>
<path d="M11.2313 4.30125V2.98275C11.2316 2.83428 11.1878 2.68905 11.1054 2.56551C11.0231 2.44197 10.9059 2.34568 10.7687 2.28887C10.6315 2.23205 10.4806 2.21728 10.335 2.24641C10.1894 2.27554 10.0558 2.34727 9.95101 2.4525L6.73126 5.98275H4.48126C4.06876 5.98275 3.73126 6.32025 3.73126 6.73275V11.2327C3.73126 11.3917 3.79276 11.532 3.87826 11.6535L11.2313 4.30125Z" fill="#4B4C4E"/>
</svg>
