<svg width="18" height="18" viewBox="0 0 18 18" fill="none" xmlns="http://www.w3.org/2000/svg">
<path d="M8.53725 2.30925C8.40014 2.25267 8.24934 2.23793 8.10387 2.2669C7.95839 2.29586 7.82474 2.36722 7.71975 2.472L4.5 6.0015H2.25C1.8375 6.0015 1.5 6.33975 1.5 6.7515V11.2515C1.5 11.664 1.8375 12.0015 2.25 12.0015H4.5L7.71975 15.5325C7.82496 15.6367 7.9586 15.7075 8.10389 15.7359C8.24918 15.7644 8.39965 15.7494 8.53642 15.6926C8.67318 15.6359 8.79014 15.5401 8.87262 15.4171C8.95509 15.2941 8.99941 15.1496 9 15.0015V3.0015C9.00009 2.85326 8.95615 2.70833 8.87377 2.58509C8.79139 2.46185 8.67426 2.36584 8.53725 2.30925Z" fill="white"/>
<path d="M10.5 3.7515V5.2515C12.5677 5.2515 14.25 6.9345 14.25 9.0015C14.25 11.0693 12.5677 12.7515 10.5 12.7515V14.2515C13.395 14.2515 15.75 11.8973 15.75 9.0015C15.75 6.10725 13.395 3.7515 10.5 3.7515Z" fill="white"/>
<path d="M12.75 9.0015C12.75 7.76175 11.7405 6.7515 10.5 6.7515V8.2515C10.9132 8.2515 11.25 8.58825 11.25 9.0015C11.25 9.41475 10.9132 9.7515 10.5 9.7515V11.2515C11.7405 11.2515 12.75 10.2428 12.75 9.0015Z" fill="white"/>
</svg>
